<?xml version="1.0" standalone="no"?>
<!DOCTYPE svg PUBLIC "-//W3C//DTD SVG 20010904//EN"
 "http://www.w3.org/TR/2001/REC-SVG-20010904/DTD/svg10.dtd">
<svg version="1.0" xmlns="http://www.w3.org/2000/svg"
 width="2268.000000pt" height="1723.000000pt" viewBox="0 0 2268.000000 1723.000000"
 preserveAspectRatio="xMidYMid meet">
<metadata>
Created by potrace 1.16, written by Peter Selinger 2001-2019
</metadata>
<g transform="translate(0.000000,1723.000000) scale(0.100000,-0.100000)"
fill="#000000" stroke="none">
<path d="M9930 14039 c-217 -21 -1698 -162 -3290 -314 -1592 -151 -2940 -279
-2995 -285 -55 -5 -230 -21 -390 -35 -159 -14 -353 -34 -430 -45 -77 -10 -214
-26 -305 -36 -155 -16 -172 -20 -285 -66 -141 -57 -171 -84 -211 -182 l-27
-69 6 -276 c4 -152 14 -508 22 -791 8 -283 19 -681 25 -885 11 -416 35 -1233
50 -1760 6 -192 22 -762 35 -1265 14 -503 29 -1063 35 -1245 5 -181 14 -519
20 -750 13 -459 23 -548 81 -710 33 -90 47 -116 390 -725 135 -239 258 -457
274 -485 55 -98 128 -231 155 -280 15 -27 64 -117 109 -198 45 -81 79 -152 76
-157 -3 -5 0 -12 6 -16 8 -5 10 -2 5 7 -4 8 0 5 9 -6 9 -11 14 -28 12 -37 -3
-10 0 -16 7 -15 6 1 10 -9 9 -23 -1 -14 1 -19 4 -12 4 10 9 8 20 -7 8 -12 11
-26 7 -33 -5 -7 -3 -8 5 -4 8 5 12 3 11 -5 -1 -8 1 -25 5 -37 6 -18 10 -21 17
-10 7 10 8 8 7 -7 -2 -33 1 -45 12 -45 5 0 7 5 3 12 -4 7 -3 8 5 4 6 -4 9 -11
6 -16 -7 -12 5 -41 15 -35 5 3 6 -5 2 -17 -3 -14 -1 -19 6 -14 6 3 13 2 17 -4
3 -5 1 -10 -5 -10 -8 0 -8 -6 0 -20 6 -11 16 -17 22 -14 6 4 8 3 4 -4 -3 -6 7
-34 24 -62 16 -28 30 -57 30 -63 0 -7 4 -17 9 -22 10 -11 84 -143 135 -240 92
-174 190 -340 212 -359 15 -11 33 -29 42 -39 9 -9 22 -17 29 -17 6 0 17 -8 22
-17 6 -10 11 -15 11 -11 0 4 21 -2 46 -13 31 -14 83 -24 162 -30 65 -4 149
-11 187 -15 71 -6 166 2 615 53 249 28 246 27 345 37 39 4 99 11 135 16 62 8
219 25 325 35 28 2 127 13 220 24 294 35 527 61 620 72 119 12 607 67 715 79
47 6 150 17 230 26 80 8 156 17 170 19 66 9 326 37 420 45 58 6 148 17 200 24
52 8 131 17 175 21 44 3 107 10 140 15 52 9 118 16 410 45 28 3 73 8 100 10
28 3 100 12 160 20 61 8 160 19 220 25 61 5 169 17 240 26 132 16 159 19 435
48 85 9 191 20 235 25 44 5 125 15 180 21 55 6 179 20 275 31 201 23 314 36
385 43 205 21 349 37 368 41 27 6 115 16 142 15 28 0 347 37 475 55 58 8 130
17 160 19 30 3 96 10 145 15 50 6 133 15 185 21 52 5 131 14 175 19 44 6 105
13 135 15 93 8 264 27 280 31 8 3 68 9 132 15 65 6 128 13 140 16 13 2 111 13
218 24 107 11 245 27 305 35 61 8 243 28 405 45 162 17 342 37 399 45 57 8
107 13 111 10 4 -2 49 2 101 10 84 12 240 31 324 40 17 1 90 8 163 15 72 8
132 18 132 23 0 5 -15 6 -33 3 -18 -3 -98 -13 -178 -21 -79 -8 -328 -35 -554
-60 -484 -53 -752 -82 -1200 -130 -181 -20 -409 -45 -505 -56 -96 -11 -220
-24 -275 -29 -55 -6 -118 -13 -139 -16 l-39 -6 26 45 c15 24 40 93 57 152 30
107 30 111 30 350 l0 242 -65 18 c-59 16 -311 134 -325 153 -4 6 -43 33 -190
133 -84 56 -184 146 -331 297 -150 153 -156 160 -211 272 -30 63 -58 131 -61
152 -4 29 -21 51 -86 113 -88 84 -180 195 -199 237 -6 15 -14 51 -17 80 -16
129 -48 178 -145 221 -120 53 -174 162 -126 255 22 43 20 69 -9 96 -42 39 -28
90 38 131 35 22 43 55 23 93 -29 56 -21 94 30 154 61 71 81 112 94 193 17 106
49 156 185 292 153 152 178 161 327 129 108 -23 241 -21 295 4 52 23 162 130
192 185 34 62 84 141 106 167 11 13 42 57 69 98 27 41 53 77 58 78 4 2 8 11 8
21 0 9 13 32 30 51 16 19 29 38 30 43 0 10 67 105 95 137 12 14 44 59 70 100
26 41 65 101 86 132 l39 57 0 1371 c0 755 -2 1376 -5 1381 -3 4 -25 6 -48 4
-61 -8 -631 -63 -767 -75 -114 -10 -184 -17 -460 -45 -144 -15 -268 -27 -470
-45 -58 -5 -177 -17 -265 -25 -88 -9 -254 -24 -370 -35 -115 -11 -282 -27
-370 -35 -88 -9 -232 -22 -320 -30 -88 -8 -230 -21 -315 -29 -236 -22 -328
-27 -305 -16 16 7 11 9 -22 9 -32 1 -43 -3 -43 -14 0 -8 -9 -15 -20 -15 -11 0
-20 3 -20 8 0 4 -99 5 -220 4 -217 -4 -220 -3 -220 17 0 20 -6 21 -80 21 -47
0 -80 -4 -80 -10 0 -17 -175 -13 -189 4 -16 19 0 29 32 20 15 -3 28 -1 32 7 8
12 -106 9 -270 -8 -33 -3 -57 -3 -54 1 8 8 326 45 714 81 88 8 203 20 255 25
327 34 405 42 590 60 113 11 297 29 410 40 113 11 345 33 515 50 171 16 351
34 400 39 50 6 124 13 165 16 41 3 138 13 215 21 77 8 352 34 610 59 259 25
535 52 615 60 80 7 184 17 232 21 47 4 91 10 98 14 9 6 9 24 1 75 -5 38 -14
71 -18 76 -9 8 -151 -4 -898 -77 -198 -19 -499 -48 -670 -64 -170 -16 -357
-34 -415 -40 -58 -6 -224 -21 -370 -35 -308 -29 -946 -89 -1170 -111 -85 -8
-204 -19 -265 -24 -60 -5 -189 -17 -285 -26 -96 -8 -206 -17 -245 -19 -38 -2
-113 -8 -165 -14 -124 -13 -291 -22 -230 -12 25 5 37 9 26 9 -15 2 -16 5 -6
17 8 10 31 15 66 15 48 0 56 3 76 30 14 20 30 30 47 30 42 0 71 -11 71 -27 0
-8 5 -11 12 -7 7 5 2 15 -18 31 l-29 23 35 2 c87 4 109 7 127 16 11 6 29 9 40
6 12 -3 27 2 38 12 12 13 30 17 66 15 31 -1 49 2 49 9 0 8 13 10 41 5 32 -6
40 -4 34 5 -5 8 -4 11 1 7 8 -5 137 7 624 58 80 9 188 20 240 25 52 5 199 20
325 34 127 14 257 28 290 31 61 6 193 19 530 55 105 11 388 40 630 65 242 25
586 61 765 80 179 19 378 40 443 47 108 11 131 18 109 32 -5 3 -51 1 -103 -4
-225 -24 -395 -40 -549 -55 -91 -8 -255 -24 -365 -35 -538 -54 -1268 -125
-1590 -155 -253 -24 -346 -33 -795 -75 -353 -33 -320 -31 -285 -16 17 7 100
18 185 25 85 7 159 16 165 20 5 5 56 12 112 16 56 3 115 11 130 16 24 8 22 8
-14 5 -24 -2 -43 0 -43 5 0 5 6 9 13 9 6 0 72 7 146 16 74 8 145 13 158 9 12
-3 31 -1 40 4 10 6 162 24 338 42 307 30 360 35 595 58 58 6 197 20 310 31
113 11 320 32 460 45 140 14 320 32 400 41 80 8 240 23 355 34 259 24 285 28
285 45 0 21 -61 67 -79 59 -21 -8 -236 -33 -281 -32 -55 1 105 24 193 27 30 1
37 17 10 24 -14 4 -12 5 5 6 14 1 22 -5 22 -15 0 -11 6 -14 23 -8 32 10 32 10
-1 52 -46 58 -51 60 -132 66 -120 9 -174 16 -360 42 -255 37 -420 64 -458 76
-42 13 -154 37 -207 44 -82 11 -225 60 -351 120 -28 13 -61 24 -73 24 -12 0
-47 7 -79 15 -31 8 -95 24 -142 36 -92 23 -122 36 -159 68 -32 28 -117 51
-188 51 -111 0 -215 41 -210 83 2 18 -4 23 -33 27 -46 7 -52 34 -11 48 17 6
31 13 31 16 0 3 -16 12 -35 20 -19 8 -35 19 -35 24 0 5 16 22 36 37 32 25 35
30 29 64 -8 46 9 63 125 122 l85 44 220 6 c121 4 237 12 257 17 64 17 108 52
285 229 l173 172 -31 36 c-18 20 -46 50 -63 68 -17 18 -60 66 -96 106 -36 40
-85 94 -110 121 -25 27 -74 81 -110 120 -36 40 -81 90 -100 110 -19 21 -64 70
-100 111 -36 40 -78 87 -95 104 -16 18 -79 85 -140 149 -63 68 -124 124 -144
132 -51 21 -162 16 -601 -27z m295 -680 c6 -30 14 -60 18 -65 3 -6 8 -30 11
-55 6 -53 34 -79 83 -79 71 0 139 57 138 115 0 25 39 35 112 28 l54 -6 -7 -31
c-10 -47 -30 -81 -64 -110 -56 -46 -165 -105 -226 -120 -139 -34 -176 -39
-299 -39 -71 0 -119 -3 -106 -6 19 -5 21 -8 10 -17 -32 -25 -269 -94 -269 -79
0 2 19 9 43 15 52 14 187 79 187 90 0 18 -36 15 -65 -5 -45 -32 -121 -61 -205
-79 -268 -54 -509 -47 -647 20 -78 39 -103 66 -103 112 0 66 52 113 182 167
171 70 316 99 495 100 104 0 123 2 126 16 3 11 19 19 43 22 22 2 86 12 144 22
168 28 283 43 310 42 21 -2 26 -9 35 -58z m-4015 -49 c187 -20 265 -48 258
-92 -10 -72 -237 -139 -688 -203 -320 -45 -797 -63 -1055 -40 -131 12 -251 45
-269 74 -15 24 8 53 66 82 67 34 219 78 343 99 28 5 88 16 136 24 106 19 461
55 634 65 164 9 451 4 575 -9z m4530 -56 c0 -57 -24 -89 -115 -154 -46 -32
-155 -80 -183 -80 -10 0 -22 -4 -27 -9 -8 -7 -182 -31 -227 -31 -33 0 8 11 77
21 93 13 242 61 301 98 53 33 136 133 138 166 1 17 7 25 19 25 13 0 17 -8 17
-36z m-1926 -81 c4 -10 12 -49 17 -88 5 -38 14 -95 20 -125 5 -30 12 -71 15
-90 2 -19 9 -57 15 -85 9 -43 8 -57 -10 -104 -12 -29 -20 -55 -18 -58 6 -5
315 23 458 42 321 42 402 110 145 122 -61 3 -113 7 -116 10 -18 16 151 58 299
73 166 16 299 13 372 -10 144 -44 96 -121 -106 -169 -49 -12 -108 -26 -130
-31 -148 -37 -529 -82 -838 -100 -163 -10 -170 -11 -205 -38 -64 -49 -105 -70
-221 -112 -132 -47 -265 -82 -429 -112 -158 -30 -476 -32 -564 -5 -78 25 -108
50 -108 91 0 46 31 81 103 115 161 76 534 134 796 125 l53 -2 -5 45 c-2 24 -6
46 -9 48 -2 2 -30 -5 -63 -16 -74 -24 -208 -46 -340 -54 -105 -7 -204 4 -288
31 l-47 16 -60 -45 c-154 -116 -486 -176 -687 -124 -51 13 -53 13 -120 -19
-193 -94 -524 -154 -853 -155 -182 0 -287 17 -378 62 -70 34 -100 76 -88 123
14 55 158 130 341 177 278 71 666 98 771 54 37 -15 58 -47 49 -75 -17 -55
-184 -122 -434 -175 -63 -14 -116 -27 -118 -29 -15 -14 56 -31 146 -34 208 -8
439 57 527 149 l28 29 -12 157 c-7 87 -15 188 -19 226 -6 67 -6 67 20 67 14 0
47 4 74 10 26 5 98 16 158 25 61 9 143 21 183 28 57 9 75 8 81 -1 4 -7 13 -85
20 -175 24 -295 28 -307 99 -307 81 0 157 78 153 157 -2 41 1 48 41 86 49 46
173 107 268 130 36 8 85 21 110 27 25 6 120 14 213 17 124 4 167 9 167 18 0
13 20 17 235 50 61 10 144 23 185 30 99 17 97 18 104 -2z m-1479 -65 c5 -35
35 -376 35 -409 0 -27 -29 -24 -34 4 -4 20 -15 123 -21 192 -4 52 -17 179 -21
205 -3 22 9 39 28 40 4 0 10 -15 13 -32z m-2117 -298 c49 -11 102 -42 102 -60
0 -20 -45 -49 -101 -65 -80 -22 -216 -35 -259 -25 -19 4 -28 8 -19 9 9 1 23 9
33 19 15 18 15 20 -2 35 -62 56 -370 40 -426 -22 -16 -18 -16 -20 8 -39 32
-24 69 -31 326 -57 293 -30 442 -69 512 -136 159 -151 -187 -322 -832 -410
-187 -25 -560 -36 -684 -20 -309 42 -371 171 -116 245 81 23 222 35 302 25 91
-11 100 -19 48 -38 -54 -20 -69 -41 -51 -74 27 -51 152 -87 299 -88 255 -1
479 61 498 138 19 73 -80 111 -386 148 -194 23 -250 33 -323 55 -69 21 -131
65 -142 100 -9 28 21 72 69 102 114 73 499 157 781 172 109 6 306 -2 363 -14z
m3655 -276 c13 -13 -131 -95 -223 -127 -25 -9 -70 -25 -100 -37 -97 -36 -316
-85 -425 -94 -72 -6 -49 0 140 39 145 29 224 50 272 71 17 8 35 14 40 14 8 1
113 54 194 100 39 22 71 36 90 39 3 1 8 -2 12 -5z m-3333 -165 c0 -36 -51 -88
-124 -126 -139 -71 -445 -160 -611 -177 -61 -6 -38 0 140 38 241 52 437 130
513 207 23 24 42 49 42 56 0 7 9 13 20 13 11 0 20 -5 20 -11z m2484 -952 c48
-27 61 -46 52 -80 -13 -54 -134 -92 -245 -78 -82 11 -132 36 -145 74 -32 90
215 152 338 84z m491 23 c-3 -5 -22 -10 -41 -10 -37 0 -46 -14 -14 -23 11 -3
20 -9 20 -14 0 -16 -61 -42 -112 -48 -85 -11 -51 -20 60 -17 91 3 110 1 122
-13 11 -13 11 -18 -2 -31 -21 -22 -128 -44 -233 -49 -103 -5 -160 4 -160 25 0
20 65 26 76 8 16 -26 236 -6 254 22 12 19 -41 27 -135 20 -104 -8 -134 -4
-126 15 3 8 -7 15 -29 19 -36 7 -51 28 -32 45 26 21 76 33 187 46 150 16 173
17 165 5z m-934 -50 c27 -15 24 -27 -13 -47 l-33 -17 50 -8 c28 -5 57 -16 65
-24 13 -14 13 -17 -7 -33 -51 -42 -263 -65 -343 -38 -56 19 -43 45 35 73 18 7
18 8 -5 11 -35 5 -80 24 -80 33 0 14 29 32 72 45 51 16 231 19 259 5z m211
-1415 c63 -8 163 -30 223 -49 177 -56 283 -132 326 -230 20 -46 21 -57 12
-112 -15 -85 -38 -130 -103 -195 -300 -301 -1104 -452 -1640 -308 -96 26 -203
78 -258 125 -67 57 -94 107 -100 184 -4 57 -1 74 23 124 107 225 503 405 1025
466 115 13 374 11 492 -5z m4717 -459 c35 -12 71 -63 71 -98 0 -49 -39 -97
-99 -123 -43 -19 -54 -19 -105 5 -49 22 -56 34 -56 92 0 53 26 94 75 118 45
23 66 24 114 6z m-369 -43 c-1 -5 -10 -48 -21 -98 -11 -49 -27 -126 -36 -170
-9 -44 -33 -158 -55 -254 -37 -164 -39 -192 -22 -253 3 -10 14 -18 25 -18 79
0 186 142 234 310 10 36 22 69 26 74 5 5 30 8 56 7 99 -6 98 -5 95 -37 -2 -16
-10 -42 -17 -59 -7 -16 -31 -74 -53 -127 -68 -165 -169 -301 -322 -434 -114
-99 -228 -147 -350 -146 -88 0 -152 20 -195 62 l-30 30 -34 -43 c-89 -109
-242 -210 -373 -243 -87 -23 -219 -22 -292 0 -153 46 -226 152 -242 351 -8 97
5 168 52 288 65 164 170 287 347 408 165 114 312 163 462 157 57 -3 101 -10
120 -20 l30 -16 16 46 15 45 120 34 c65 19 148 43 184 53 167 50 260 69 260
53z m88 -100 c-10 -53 -12 -61 -21 -83 -15 -42 -37 -141 -33 -148 3 -5 -7 -55
-20 -113 -14 -57 -33 -146 -43 -196 -9 -51 -22 -98 -28 -104 -15 -15 -36 -1
-28 20 6 15 12 46 50 266 10 55 22 107 26 117 5 9 16 60 24 115 22 136 32 171
53 176 28 6 30 0 20 -50z m-3211 -195 c-3 -24 -15 -79 -26 -123 -11 -44 -30
-120 -41 -170 -12 -49 -41 -171 -64 -270 -24 -99 -62 -261 -85 -360 -23 -99
-53 -226 -67 -282 -13 -56 -24 -121 -24 -143 0 -34 4 -42 26 -50 39 -15 69 -3
118 50 49 52 156 258 156 300 0 36 34 150 65 218 14 31 51 90 82 130 164 215
400 354 623 369 71 4 95 2 145 -16 33 -12 64 -22 69 -24 5 -1 13 18 17 42 5
24 10 46 13 48 2 2 82 24 178 48 95 24 200 51 233 60 33 9 82 22 108 29 l49
13 -7 -51 c-4 -28 -20 -105 -37 -171 -17 -66 -43 -181 -59 -255 -77 -362 -99
-463 -123 -556 -14 -55 -34 -146 -45 -202 -11 -56 -26 -116 -35 -134 -44 -99
-115 -273 -111 -276 8 -9 236 -3 315 8 331 45 510 136 510 261 0 60 -71 111
-173 124 -31 4 -57 11 -57 16 0 4 25 28 55 52 101 83 307 132 451 108 87 -14
115 -25 161 -59 51 -38 73 -81 73 -145 0 -197 -181 -344 -570 -463 -198 -60
-369 -84 -653 -91 l-248 -6 -61 -76 c-194 -242 -517 -449 -815 -523 -102 -25
-300 -31 -370 -10 -67 20 -133 72 -166 131 -53 93 -40 227 36 376 121 235 469
416 799 415 94 -1 120 -4 214 -25 l31 -7 16 64 c28 109 47 194 47 207 0 8 -13
3 -35 -13 -57 -44 -174 -94 -260 -111 -187 -39 -360 26 -418 158 -6 15 -14 27
-17 27 -3 0 -20 -24 -38 -52 -84 -139 -250 -289 -388 -349 -102 -45 -219 -60
-299 -38 -51 14 -123 66 -142 102 l-14 28 -81 -76 c-161 -152 -328 -242 -548
-296 -80 -20 -120 -23 -255 -23 -140 0 -167 3 -219 22 -123 46 -209 125 -251
232 -23 60 -31 193 -15 272 32 164 157 336 333 456 69 48 236 128 325 156 156
49 222 60 347 61 114 0 123 -2 180 -30 76 -38 98 -69 103 -144 14 -194 -142
-380 -447 -532 -53 -27 -136 -61 -184 -76 l-89 -28 6 -30 c9 -43 36 -76 87
-103 39 -21 53 -23 129 -19 50 3 108 14 140 26 50 19 160 81 187 106 135 123
220 236 248 328 8 29 33 129 55 222 22 94 58 247 80 340 23 94 51 217 64 275
13 58 33 141 44 185 11 44 28 117 38 163 l18 82 65 19 c103 29 464 118 485
120 16 1 18 -4 13 -41z m103 -30 c0 -7 -9 -49 -21 -93 -11 -44 -31 -127 -44
-185 -13 -58 -39 -170 -59 -250 -20 -80 -47 -192 -60 -250 -114 -504 -126
-550 -146 -550 -20 0 -9 71 40 277 28 114 67 278 87 363 19 85 55 234 78 330
24 96 51 216 61 267 17 88 22 97 57 102 4 0 7 -5 7 -11z m3417 -161 c-2 -6
-19 -57 -36 -112 -44 -137 -94 -226 -207 -367 -127 -158 -205 -219 -344 -272
-56 -20 -142 -32 -198 -27 -30 3 2 21 37 21 73 0 186 56 329 163 44 33 182
185 182 200 0 3 22 41 48 84 69 111 131 239 138 284 6 33 10 39 31 39 16 0 23
-5 20 -13z m-5912 -327 c33 -5 89 -24 125 -42 51 -26 71 -43 95 -82 59 -96 32
-219 -64 -295 -77 -61 -196 -95 -284 -82 -70 11 -77 23 -34 64 62 58 75 137
34 197 -31 47 -77 71 -145 77 -149 14 -292 -87 -292 -207 0 -86 55 -141 235
-232 287 -146 389 -246 431 -424 110 -471 -340 -942 -1056 -1106 -129 -29
-441 -32 -538 -6 -225 63 -342 202 -342 408 1 169 146 355 319 407 64 19 177
21 213 3 33 -17 88 -71 88 -87 0 -7 -13 -19 -28 -27 -43 -22 -99 -90 -111
-133 -14 -50 -14 -156 0 -203 20 -64 78 -132 144 -165 56 -28 68 -30 165 -29
122 0 188 17 276 70 183 110 275 313 217 479 -28 80 -113 156 -284 258 -265
156 -339 254 -339 452 0 266 204 495 560 627 86 32 238 71 315 81 63 8 243 6
300 -3z m344 -290 c3 -134 -133 -257 -296 -266 l-68 -4 54 15 c150 42 258 146
282 268 9 46 14 56 20 41 4 -10 8 -35 8 -54z m3530 -245 c-17 -66 -37 -154
-45 -195 -39 -189 -58 -263 -97 -370 -41 -113 -43 -115 -75 -118 l-33 -3 31
60 c47 94 69 154 90 254 11 51 24 101 30 112 5 11 16 58 25 105 9 47 30 147
48 222 l31 138 13 -42 c11 -38 9 -55 -18 -163z m1022 147 c19 -19 19 -19 -35
-68 -110 -101 -233 -168 -321 -178 l-50 -5 55 25 c114 51 154 79 260 181 36
35 66 63 68 63 2 0 12 -8 23 -18z m-3354 -241 c-6 -109 -35 -167 -132 -266
-121 -123 -287 -222 -474 -284 -102 -34 -125 -37 -119 -19 3 7 38 24 79 38 65
22 206 88 264 123 214 129 364 328 365 484 1 40 2 45 12 29 6 -12 9 -51 5
-105z m3437 -298 c10 -60 -10 -140 -48 -192 -30 -41 -99 -111 -109 -111 -2 0
-41 -22 -86 -49 -76 -45 -239 -113 -336 -140 -22 -6 -71 -19 -110 -30 -103
-29 -246 -50 -370 -56 -61 -3 -123 -8 -138 -10 -15 -3 -26 -1 -23 4 3 4 52 11
108 15 266 17 588 102 760 199 195 110 328 260 328 369 0 49 16 49 24 1z
m-2564 -106 c-146 -184 -372 -319 -531 -316 l-54 1 65 14 c82 17 207 78 285
137 61 46 161 150 217 227 l32 43 17 -22 c18 -22 17 -23 -31 -84z m-850 -231
c0 -15 -151 -138 -223 -181 -150 -90 -413 -167 -561 -164 l-51 1 50 9 c208 38
343 80 443 137 26 15 58 33 72 40 37 19 129 89 190 145 41 38 55 45 66 36 8
-6 14 -17 14 -23z m-1385 -116 c24 -75 -88 -265 -242 -410 -247 -234 -662
-410 -1003 -425 l-95 -4 95 13 c101 14 196 32 245 46 366 109 662 292 835 520
61 80 123 194 135 248 8 36 21 42 30 12z m3305 -163 c-54 -91 -233 -256 -396
-364 -206 -137 -482 -233 -669 -233 -36 0 -46 3 -35 10 8 5 31 10 50 10 40 0
198 38 280 68 84 30 244 108 308 150 123 80 234 178 362 320 50 56 71 72 92
72 l27 0 -19 -33z m-600 -1366 c0 -5 -9 -12 -19 -16 -13 -4 -17 -12 -14 -26 7
-25 -21 -56 -58 -64 -42 -9 -36 -25 10 -25 21 0 44 -6 51 -15 38 -46 -65 -106
-146 -83 -28 7 -35 14 -32 31 4 30 48 37 48 8 0 -29 48 -28 84 0 34 27 21 39
-41 39 -40 0 -42 2 -41 28 1 15 -2 34 -6 43 -13 30 35 72 90 80 73 10 74 10
74 0z m425 -285 c30 -22 24 -82 -12 -116 -39 -39 -82 -46 -111 -20 -53 50 4
142 94 149 5 1 19 -5 29 -13z m-3671 -51 c9 -30 19 -69 23 -87 3 -18 10 -39
16 -45 7 -10 3 -13 -18 -13 -17 0 -25 4 -22 13 2 6 -2 24 -9 38 -12 23 -17 25
-51 20 -33 -5 -41 -12 -58 -48 -11 -23 -26 -42 -33 -43 -8 0 -12 3 -10 8 2 4
27 53 56 110 63 124 82 132 106 47z m3190 -7 c25 -35 20 -73 -14 -106 -46 -46
-106 -48 -130 -3 -21 40 27 114 80 124 45 8 49 7 64 -15z m-649 -54 c44 -17
34 -103 -16 -138 -30 -20 -83 -21 -103 0 -32 31 -13 94 36 124 35 21 55 24 83
14z m-961 -136 c14 -41 -14 -95 -60 -114 -42 -18 -69 -11 -90 21 -35 53 26
128 100 123 34 -3 42 -7 50 -30z m769 -222 c9 -22 -15 -136 -27 -136 -7 0 -11
24 -11 62 0 51 -3 63 -17 66 -28 6 -55 -47 -57 -110 -1 -19 -6 -28 -17 -28
-13 0 -14 9 -9 53 6 43 4 56 -10 67 -15 13 -20 11 -41 -13 -13 -16 -24 -38
-24 -50 0 -36 -11 -67 -24 -67 -8 0 -9 20 -2 74 l10 74 47 6 c25 4 54 4 62 0
9 -3 24 -1 34 5 27 15 80 13 86 -3z m-475 -70 c6 -51 -8 -116 -24 -116 -10 0
-14 6 -11 18 15 53 16 74 7 92 -25 46 -68 7 -77 -69 -5 -41 -9 -51 -25 -51
-15 0 -17 3 -8 19 12 24 13 81 1 100 -12 19 -50 4 -61 -25 -5 -13 -11 -42 -12
-64 -2 -31 -7 -40 -22 -40 -13 0 -16 5 -12 17 4 9 9 42 13 74 l6 57 47 6 c26
4 55 4 63 0 9 -3 24 -1 34 5 10 6 32 10 48 8 25 -2 31 -7 33 -31z m1992 -96
c24 -24 25 -41 5 -80 -21 -40 -53 -60 -96 -60 -42 0 -61 18 -61 56 0 38 21 71
56 88 42 21 72 20 96 -4z m-360 -40 c11 -11 20 -27 20 -35 0 -29 -30 -75 -60
-90 -78 -40 -139 7 -104 81 29 60 105 83 144 44z m-3258 -17 c11 -9 18 -30 18
-50 0 -80 -123 -127 -159 -61 -10 19 -9 30 4 60 24 60 97 87 137 51z m3068
-12 c0 -62 -13 -121 -26 -121 -10 0 -14 14 -14 48 l0 47 -32 -54 -32 -55 -20
49 -20 48 -16 -48 c-9 -27 -22 -51 -30 -53 -9 -3 -11 1 -6 14 4 11 14 44 22
74 17 63 14 57 39 62 16 2 22 -5 29 -34 5 -21 12 -38 15 -38 4 0 12 14 19 30
28 63 72 82 72 31z m-342 -23 c24 -24 14 -78 -22 -114 -35 -35 -70 -43 -106
-24 -41 22 -29 99 22 134 27 19 89 21 106 4z m-338 -28 c41 -22 29 -99 -22
-134 -27 -19 -89 -21 -106 -4 -25 25 -9 101 27 123 38 24 75 29 101 15z m-744
-87 c-15 -37 -25 -100 -20 -120 5 -19 1 -20 -53 -22 -32 0 -73 -4 -92 -7 l-34
-7 8 59 c4 33 8 67 7 77 0 11 7 17 19 17 15 0 19 -5 16 -17 -3 -10 -8 -39 -12
-65 -6 -44 -4 -48 14 -48 21 0 27 18 35 100 2 27 8 36 25 38 18 3 20 0 12 -20
-4 -13 -11 -42 -15 -66 -6 -41 -5 -43 16 -40 20 3 24 11 29 55 9 68 15 83 35
83 11 0 14 -5 10 -17z m-1054 -120 c23 -21 23 -40 -2 -80 -23 -38 -54 -56 -93
-55 -40 1 -57 19 -57 59 0 72 100 123 152 76z m-705 -93 c1 -19 3 -43 5 -54 4
-24 -37 -53 -85 -60 l-37 -6 7 58 c3 31 7 64 7 72 1 16 37 29 76 27 21 -2 25
-7 27 -37z m-286 0 c27 -15 26 -79 -2 -109 -27 -29 -67 -44 -99 -36 -30 8 -40
22 -39 55 0 71 79 122 140 90z m2313 -159 c52 -45 70 -161 42 -270 -38 -141
-172 -250 -273 -221 -78 22 -113 74 -113 171 0 162 99 316 217 339 49 10 103
2 127 -19z m-421 -45 c23 -16 27 -25 27 -68 0 -45 -4 -52 -45 -92 -25 -25 -45
-46 -45 -49 0 -2 13 -10 30 -17 112 -46 53 -202 -97 -256 -44 -15 -141 -18
-176 -5 -98 37 -85 169 21 228 17 10 32 18 32 19 0 1 -16 18 -35 37 -19 19
-35 43 -35 54 1 34 38 100 70 123 71 51 195 63 253 26z m-447 -87 c-36 -199
-59 -392 -48 -409 9 -15 6 -18 -26 -24 -20 -3 -50 -6 -66 -6 -28 0 -28 1 -12
19 12 14 25 68 42 178 34 220 34 205 -6 197 -16 -4 -30 -5 -30 -3 0 3 27 24
60 48 32 24 66 54 75 68 9 14 19 23 21 20 3 -3 -2 -42 -10 -88z m1384 61 c0
-21 -41 -50 -70 -50 -34 0 -37 -5 -15 -26 8 -9 15 -27 15 -40 0 -62 -60 -119
-156 -147 -74 -21 -68 -37 15 -37 124 0 167 -35 142 -113 -22 -67 -101 -114
-217 -129 -116 -16 -194 13 -194 72 0 33 34 66 77 75 l32 6 -16 -31 c-15 -30
-14 -33 6 -53 18 -18 32 -22 79 -20 118 5 197 70 153 125 -17 21 -26 22 -115
21 -89 -2 -97 0 -107 20 -10 18 -8 24 14 41 l26 19 -30 28 c-56 52 -29 145 55
194 40 23 90 33 294 54 6 0 12 -3 12 -9z"/>
<path d="M9497 13239 c-83 -62 -87 -201 -6 -241 41 -21 117 -23 162 -4 52 22
70 50 75 116 4 49 1 64 -18 89 -30 43 -70 61 -132 61 -38 -1 -61 -7 -81 -21z"/>
<path d="M5660 13289 c-154 -8 -526 -44 -615 -60 -142 -24 -284 -52 -335 -66
-124 -33 -200 -70 -200 -98 0 -18 53 -40 135 -56 93 -18 541 -18 780 -1 270
19 615 70 787 116 336 90 246 162 -212 169 -113 2 -266 0 -340 -4z m486 -94
c14 -22 21 -24 58 -19 34 5 39 4 28 -7 -7 -8 -40 -14 -80 -16 -82 -4 -249 -20
-294 -28 -25 -5 -40 -1 -60 14 -14 12 -39 21 -54 21 -26 0 -26 -1 -11 -18 25
-27 21 -32 -23 -32 -29 0 -43 5 -52 20 -8 12 -24 20 -42 20 -28 0 -28 -1 -13
-24 l16 -24 -92 -8 c-51 -4 -103 -9 -117 -10 -14 -1 -99 -10 -190 -18 -91 -9
-187 -18 -215 -21 -27 -2 -75 -6 -105 -9 -40 -4 -47 -3 -25 3 l30 9 -37 1
c-20 0 -44 -2 -54 -6 -16 -6 -16 -7 2 -15 11 -5 -1 -6 -31 -2 -78 9 -77 19 5
34 29 5 68 10 86 10 19 0 34 3 34 6 0 3 -12 21 -27 40 -15 20 -22 38 -17 43
47 43 234 39 234 -5 0 -18 -11 -23 -64 -30 -54 -8 -62 8 -13 26 l32 12 -32 9
c-19 6 -41 5 -58 -1 l-26 -10 19 -28 c37 -51 63 -72 87 -72 27 0 42 16 23 23
-10 3 -9 8 2 21 11 11 47 19 115 26 l99 10 21 -26 c17 -22 27 -26 48 -20 23 5
26 9 17 26 -15 28 -13 30 28 30 26 0 41 -6 50 -20 8 -13 23 -20 42 -20 34 0
37 6 14 31 -15 16 -12 18 38 24 29 3 80 8 113 11 33 2 85 7 115 10 48 5 59 2
88 -20 36 -26 73 -26 50 1 -16 20 3 31 72 38 30 3 64 7 75 9 57 9 75 5 91 -19z"/>
<path d="M8113 13010 c-46 -20 -79 -64 -89 -117 -8 -41 1 -67 38 -109 28 -32
34 -34 89 -34 84 0 128 25 158 88 26 55 24 84 -10 139 -33 53 -112 67 -186 33z"/>
<path d="M6100 12721 c-47 -15 -109 -51 -124 -73 -19 -27 -21 -72 -3 -85 25
-21 244 43 302 88 14 11 25 27 25 35 0 34 -129 56 -200 35z"/>
<path d="M8125 12540 c-223 -14 -403 -71 -345 -111 20 -14 235 -4 325 15 77
17 181 55 217 80 l22 16 -29 0 c-17 0 -39 2 -50 4 -11 2 -74 0 -140 -4z"/>
<path d="M7784 11397 c-34 -30 -28 -66 17 -98 57 -40 176 -24 196 27 10 26 -6
59 -36 77 -45 27 -142 23 -177 -6z"/>
<path d="M7370 9893 c-464 -44 -812 -159 -976 -322 -91 -91 -109 -173 -55
-248 93 -129 312 -198 661 -210 560 -18 1175 186 1282 426 76 167 -135 308
-527 351 -84 9 -305 11 -385 3z m-467 -182 c42 -16 57 -39 57 -88 0 -38 -5
-50 -34 -79 -39 -39 -81 -46 -91 -14 -10 31 2 54 38 70 56 26 43 97 -16 83
-53 -13 -57 -25 -57 -184 0 -138 1 -149 20 -159 35 -19 55 1 51 53 -2 40 2 50
32 83 34 37 36 38 116 41 45 1 85 4 90 7 14 9 21 -21 21 -90 0 -35 3 -64 8
-64 4 0 17 3 30 6 20 6 22 12 22 80 l0 73 34 7 c19 3 39 3 45 -1 6 -3 11 -37
11 -76 l0 -69 30 0 30 0 0 81 0 80 49 -2 c26 -2 63 3 81 11 26 11 39 11 66 1
28 -10 37 -10 56 3 29 20 82 20 102 0 11 -10 16 -34 16 -73 0 -65 3 -71 31
-64 17 5 19 11 14 47 -12 86 33 122 163 131 l92 6 0 -77 0 -76 35 6 c28 6 35
4 35 -8 0 -28 -46 -48 -97 -43 -29 2 -67 -2 -95 -12 -39 -13 -53 -13 -79 -4
-25 10 -37 9 -59 -2 -31 -16 -90 -22 -107 -12 -6 4 -13 34 -15 67 -5 68 -9 74
-37 65 -17 -5 -21 -16 -23 -78 l-3 -72 -40 0 -40 0 -3 73 c-3 72 -6 77 -36 66
-13 -5 -16 -22 -16 -79 l0 -73 -62 -6 c-35 -3 -80 -8 -101 -12 -23 -4 -43 -2
-51 6 -11 9 -21 8 -44 -4 -35 -18 -77 -23 -110 -12 -15 5 -29 3 -39 -6 -9 -7
-47 -14 -87 -16 -172 -6 -203 -9 -230 -21 -70 -29 -196 -5 -196 38 0 43 90 85
168 79 l37 -3 -3 115 c-3 107 -2 117 20 150 13 19 35 40 48 47 29 15 89 17
123 4z"/>
<path d="M12401 9486 c-53 -29 -69 -116 -28 -154 46 -43 113 -34 151 20 23 32
20 90 -5 122 -23 30 -76 35 -118 12z"/>
<path d="M11351 9109 c-45 -20 -85 -75 -150 -207 -50 -102 -75 -180 -106 -337
-30 -150 -27 -195 15 -237 74 -74 187 11 258 192 35 90 81 242 92 305 17 99
10 247 -13 273 -27 29 -50 32 -96 11z m77 -52 c8 -9 2 -20 -20 -42 -49 -48
-113 -155 -148 -246 -30 -80 -90 -325 -90 -371 0 -48 -16 -42 -26 10 -7 39 11
199 28 242 6 14 28 76 49 138 47 131 104 236 145 263 34 22 48 24 62 6z"/>
<path d="M9815 8676 c-48 -21 -104 -92 -151 -190 -83 -177 -112 -281 -119
-426 -5 -104 4 -147 35 -175 43 -39 142 19 195 113 35 62 100 216 115 270 38
142 50 323 26 371 -11 21 -55 53 -69 51 -1 -1 -15 -7 -32 -14z m62 -63 c4 -9
1 -19 -5 -21 -21 -7 -104 -143 -148 -243 -24 -53 -49 -129 -58 -170 -19 -94
-36 -231 -30 -241 3 -4 1 -8 -5 -8 -38 0 -30 168 14 326 42 149 91 254 152
324 46 52 69 62 80 33z"/>
<path d="M7655 8171 c-80 -20 -172 -106 -225 -210 -31 -63 -70 -194 -70 -238
0 -35 31 -30 140 24 191 95 315 265 270 372 -9 24 -65 65 -82 60 -1 -1 -16 -4
-33 -8z m65 -59 c0 -4 -16 -16 -35 -26 -66 -36 -154 -153 -190 -254 -18 -50
-48 -82 -58 -65 -9 14 34 133 68 191 56 96 133 162 188 162 15 0 27 -3 27 -8z"/>
<path d="M9334 7290 c-115 -16 -264 -92 -310 -159 -31 -45 -32 -101 -3 -127
18 -16 36 -19 118 -18 99 1 161 18 269 73 40 20 222 187 222 202 0 8 -100 25
-185 33 -27 2 -77 0 -111 -4z m136 -51 c13 -9 13 -10 -1 -6 -28 9 -162 -28
-227 -63 -58 -31 -116 -82 -139 -125 -13 -23 -33 -11 -33 21 0 47 101 125 205
157 83 26 171 33 195 16z"/>
<path d="M8274 4206 c-62 -27 -114 -137 -114 -242 0 -139 65 -193 146 -122 53
46 86 126 92 219 5 86 -12 133 -54 149 -31 12 -32 12 -70 -4z"/>
<path d="M7815 4164 c-83 -44 -73 -104 24 -138 49 -18 65 -12 99 38 27 40 28
70 2 96 -24 24 -82 26 -125 4z"/>
<path d="M7747 3912 c-47 -48 -56 -88 -28 -123 40 -52 138 -44 198 16 39 39
42 73 11 102 -23 21 -85 43 -123 43 -12 0 -38 -17 -58 -38z"/>
<path d="M8668 4104 c-48 -25 -51 -94 -6 -127 32 -24 64 -18 101 19 72 71 -5
157 -95 108z"/>
<path d="M14180 13868 c-30 -5 -98 -12 -150 -16 -67 -5 -88 -10 -72 -15 12 -5
32 -5 43 -2 13 5 19 3 15 -3 -9 -14 71 -30 129 -26 58 5 148 19 187 29 38 10
26 38 -14 33 -16 -3 -31 -1 -34 4 -6 9 -28 9 -104 -4z"/>
<path d="M15080 13835 c-8 -2 -86 -11 -173 -21 -195 -22 -197 -39 -4 -38 99 0
145 4 185 18 28 10 52 21 52 26 0 8 -26 21 -38 19 -4 -1 -14 -3 -22 -4z"/>
<path d="M12905 13813 c-94 -22 -166 -34 -210 -34 -30 1 -36 -2 -27 -11 13
-13 164 -31 172 -20 3 4 16 8 30 10 14 1 70 7 126 14 96 11 103 10 146 -10 32
-16 63 -22 114 -22 87 0 114 14 58 29 -124 34 -165 44 -224 51 -86 12 -114 11
-185 -7z"/>
<path d="M13770 13799 c-30 -4 -116 -19 -190 -32 -132 -23 -134 -23 -100 -36
56 -20 191 -26 262 -10 79 17 216 18 227 1 13 -21 94 -26 127 -9 l29 16 -27 1
c-15 0 -29 4 -33 9 -3 5 -31 15 -63 21 -31 7 -64 18 -72 24 -8 7 -26 13 -40
14 -14 1 -34 3 -45 5 -11 2 -45 0 -75 -4z"/>
<path d="M15906 13801 c-3 -4 -49 -12 -103 -16 -54 -4 -110 -9 -125 -10 -16
-1 -58 -3 -95 -4 -75 -1 -72 -21 3 -21 25 0 47 -6 55 -16 7 -9 21 -13 33 -10
12 3 64 11 116 16 94 11 184 40 147 48 -9 2 -15 8 -12 13 4 5 2 9 -4 9 -5 0
-12 -4 -15 -9z"/>
<path d="M14500 13749 c-104 -18 -115 -20 -155 -25 -22 -3 -56 -8 -75 -11
l-35 -6 35 -9 c105 -26 162 -28 259 -11 104 19 205 20 226 3 19 -16 139 -25
161 -12 17 11 17 11 -6 12 -14 0 -63 13 -109 30 -94 33 -212 45 -301 29z"/>
<path d="M16580 13752 c-14 -2 -31 -8 -37 -14 -7 -6 -19 -8 -28 -5 -17 7 -115
-14 -115 -25 0 -15 110 -30 142 -19 17 6 48 11 69 11 61 0 129 22 129 41 0 13
-11 16 -67 15 -38 0 -79 -2 -93 -4z"/>
<path d="M15300 13708 c-30 -4 -82 -11 -115 -17 -33 -5 -87 -10 -119 -10 -69
-1 -66 -11 7 -28 29 -6 74 -17 100 -24 41 -11 64 -10 150 4 133 23 195 23 235
3 33 -17 62 -20 100 -10 27 8 29 24 4 24 -10 0 -22 3 -26 7 -11 12 -80 33
-106 33 -15 0 -32 6 -38 12 -14 14 -109 17 -192 6z"/>
<path d="M17540 13712 c-14 -2 -29 -7 -33 -12 -5 -4 -26 -6 -48 -3 -38 5 -225
-14 -243 -24 -5 -3 18 -14 50 -25 92 -29 250 -13 328 34 24 14 27 18 13 23
-32 10 -42 11 -67 7z"/>
<path d="M13155 13696 c-27 -7 -85 -19 -128 -27 -42 -7 -74 -16 -70 -19 11 -9
103 -30 138 -31 17 -1 73 4 125 10 181 20 192 20 220 6 46 -24 102 -28 140
-12 23 9 30 16 20 19 -8 3 -53 17 -99 32 -101 34 -264 44 -346 22z"/>
<path d="M13922 13646 c-73 -13 -138 -23 -145 -23 -7 0 -25 -1 -42 -2 -24 -3
-18 -6 30 -17 81 -19 238 -26 305 -13 113 21 159 22 183 6 32 -21 88 -31 126
-22 38 8 41 27 4 23 -18 -2 -27 1 -25 10 2 12 -12 16 -56 14 -12 -1 -20 3 -17
8 4 6 -7 10 -22 10 -16 0 -34 5 -39 10 -22 22 -166 20 -302 -4z"/>
<path d="M14885 13629 c-16 -3 -55 -7 -86 -8 -31 0 -59 -4 -63 -8 -4 -5 -60
-13 -124 -18 -114 -10 -116 -11 -77 -23 22 -6 76 -19 121 -29 78 -16 84 -16
195 5 133 26 198 28 225 7 22 -16 90 -20 99 -5 4 6 -6 10 -24 10 -24 0 -29 3
-24 17 4 11 3 14 -5 9 -6 -4 -19 -2 -29 3 -17 9 -67 24 -88 26 -5 0 -17 5 -25
10 -19 12 -55 14 -95 4z"/>
<path d="M15945 13630 c-38 -5 -86 -12 -105 -15 -19 -4 -60 -9 -90 -12 -30 -3
-61 -10 -67 -15 -7 -6 -19 -8 -28 -5 -8 4 -17 2 -20 -3 -3 -5 -13 -9 -23 -9
-19 -1 -97 -13 -317 -50 -33 -6 -80 -13 -105 -15 -25 -3 -97 -14 -160 -26 -63
-11 -138 -25 -167 -30 -29 -5 -60 -13 -70 -18 -20 -10 -93 -23 -163 -28 -95
-8 -126 -11 -140 -17 -8 -3 -80 -18 -160 -33 -80 -14 -154 -28 -165 -30 -11
-2 -36 -7 -55 -10 -19 -3 -102 -17 -185 -31 -82 -15 -168 -27 -191 -29 -23 -1
-68 -7 -100 -14 -32 -6 -90 -17 -129 -25 -140 -27 -186 -34 -201 -28 -9 3 -20
0 -24 -7 -4 -7 -20 -13 -36 -14 -16 -2 -40 -6 -54 -9 -14 -4 -43 -9 -65 -11
-93 -12 -313 -57 -347 -72 -20 -9 -41 -13 -46 -10 -6 3 -13 2 -17 -4 -3 -5
-21 -10 -40 -10 -19 0 -37 -4 -40 -10 -3 -5 3 -10 14 -10 10 0 21 -5 23 -11 2
-7 12 -7 33 1 18 7 51 9 81 5 28 -3 64 -3 80 2 l29 7 -35 7 -35 6 43 2 c23 0
42 -3 42 -9 0 -14 30 -12 35 3 3 7 26 12 59 13 29 0 84 10 122 21 82 25 171
42 274 53 153 16 446 62 485 76 22 7 59 14 82 14 23 0 52 4 65 9 13 5 78 17
144 26 65 9 123 21 128 26 6 5 26 9 45 9 19 0 62 6 95 14 49 12 172 30 341 51
20 3 128 27 195 45 66 17 85 20 145 26 33 4 92 13 130 21 39 8 115 20 170 28
172 24 228 35 239 45 7 5 58 16 115 24 56 9 106 18 111 21 17 11 530 5 530 -6
0 -4 29 -13 65 -20 36 -7 65 -16 65 -21 0 -4 18 -8 40 -8 38 0 40 2 30 20 -6
11 -21 20 -33 20 -12 0 -35 7 -51 15 -93 49 -423 85 -591 65z"/>
<path d="M16975 13633 c-22 -2 -56 -7 -75 -12 -19 -5 -68 -15 -108 -21 -39 -7
-70 -15 -67 -19 2 -4 34 -16 69 -25 67 -19 74 -18 249 5 102 13 116 12 213
-25 30 -11 61 -13 113 -9 42 3 67 9 60 14 -7 4 -17 6 -21 3 -4 -3 -18 1 -30 8
-13 7 -29 11 -36 9 -8 -1 -20 3 -27 9 -8 7 -19 9 -25 5 -5 -3 -10 -2 -10 3 0
8 -77 37 -91 34 -3 0 -28 6 -54 14 -46 13 -72 15 -160 7z"/>
<path d="M12695 13610 c-32 -11 -48 -14 -138 -25 -32 -4 -60 -12 -63 -16 -3
-5 -23 -9 -45 -9 -58 0 -39 -16 27 -25 32 -4 64 -9 72 -13 9 -3 13 -1 9 4 -3
6 21 10 61 11 37 0 88 8 113 17 49 17 151 15 157 -2 2 -6 12 -8 23 -5 15 4 18
2 13 -11 -5 -14 5 -16 82 -15 49 1 103 5 119 9 l30 7 -30 7 c-16 4 -57 14 -90
22 -33 8 -75 20 -92 25 -18 6 -38 7 -44 3 -6 -3 -14 -2 -18 5 -10 15 -149 23
-186 11z"/>
<path d="M13470 13580 c-36 -4 -72 -10 -81 -14 -9 -4 -60 -13 -115 -19 l-98
-13 84 -20 c92 -22 185 -23 288 -4 76 13 163 11 211 -6 43 -16 131 -18 131 -4
0 6 -9 10 -20 10 -11 0 -20 5 -20 10 0 6 -10 10 -23 10 -12 0 -34 8 -47 17
-14 10 -27 17 -30 17 -3 -1 -9 0 -15 1 -98 25 -147 28 -265 15z"/>
<path d="M14429 13545 c-3 -2 -27 -6 -54 -9 -28 -2 -61 -7 -75 -11 -14 -3 -43
-7 -65 -9 -161 -14 -205 -20 -205 -27 0 -5 3 -9 8 -9 4 0 36 -7 72 -14 72 -15
261 -13 305 4 35 13 142 13 150 -1 4 -6 19 -7 37 -4 21 5 28 4 24 -4 -8 -13
32 -15 52 -3 10 7 -55 34 -113 47 -14 3 -43 14 -82 31 -33 15 -47 17 -54 9z"/>
<path d="M13015 13493 c-16 -2 -73 -11 -125 -20 -52 -9 -106 -17 -120 -18 -14
-1 -33 -3 -43 -3 -10 -1 -15 -7 -12 -12 4 -6 14 -10 23 -8 10 1 27 -3 39 -10
28 -15 92 -16 173 -1 95 17 272 13 283 -6 6 -11 26 -15 72 -15 35 0 66 4 69 9
8 12 -55 41 -88 41 -14 0 -26 5 -26 11 0 6 -7 8 -16 5 -9 -4 -24 -1 -32 6 -14
11 -15 10 -8 -7 7 -18 5 -18 -16 2 -21 20 -50 26 -98 22 -8 -1 -22 1 -30 3 -8
3 -28 3 -45 1z"/>
<path d="M16310 13490 c0 -5 -9 -10 -19 -10 -32 0 -50 -11 -44 -26 4 -12 0
-13 -21 -5 -14 6 -88 13 -164 15 -123 5 -144 3 -178 -13 l-39 -19 26 -11 c15
-5 89 -13 165 -16 77 -3 147 -8 157 -11 21 -7 128 7 109 13 -10 4 -10 10 2 28
12 18 12 25 3 28 -7 3 -6 6 4 6 9 1 22 8 29 16 10 13 9 15 -9 15 -11 0 -21 -4
-21 -10z"/>
<path d="M17410 13490 c-52 -5 -131 -11 -175 -14 -119 -8 -185 -18 -185 -27 0
-5 35 -19 78 -32 70 -22 88 -23 163 -16 46 4 98 8 114 9 20 0 45 13 73 38 39
34 52 54 35 51 -5 -1 -51 -5 -103 -9z"/>
<path d="M13780 13440 c-52 -10 -132 -21 -177 -25 -46 -4 -83 -11 -83 -14 0
-7 70 -24 184 -43 46 -8 74 -7 125 6 115 27 183 30 240 11 52 -17 111 -13 111
7 0 6 -7 8 -15 5 -8 -4 -17 -2 -21 4 -3 5 -14 7 -24 4 -11 -3 -20 0 -23 10 -4
8 -13 12 -22 9 -8 -4 -22 -1 -30 6 -8 7 -24 10 -35 7 -12 -3 -20 0 -20 8 0 7
-19 15 -46 19 -57 7 -47 8 -164 -14z"/>
<path d="M16865 13408 c-130 -11 -144 -13 -249 -32 -49 -9 -91 -16 -95 -16
-11 -1 72 -29 122 -41 50 -12 51 -12 272 20 58 8 161 -3 182 -20 18 -16 158
-25 167 -11 5 9 -57 28 -78 23 -4 -1 -13 3 -20 8 -7 6 -32 13 -56 17 -25 4
-55 14 -67 21 -12 8 -31 12 -43 8 -14 -4 -20 -2 -20 9 0 22 -5 22 -115 14z"/>
<path d="M12539 13406 c-2 -2 -22 -7 -44 -10 -22 -4 -49 -8 -60 -10 -11 -2
-49 -9 -85 -15 -80 -14 -151 -38 -130 -44 64 -19 127 -23 174 -11 28 8 72 14
98 14 25 0 48 5 50 11 2 7 27 8 76 4 45 -5 69 -11 65 -18 -4 -6 2 -8 15 -5 12
4 25 2 28 -3 6 -11 164 -12 164 -1 0 9 -80 32 -113 32 -12 0 -33 6 -47 13 -42
22 -118 40 -149 35 -17 -2 -28 -1 -25 4 5 8 -9 12 -17 4z"/>
<path d="M15182 13387 c-11 -13 12 -42 88 -108 23 -20 31 -32 22 -36 -10 -4
-10 -8 -1 -19 7 -9 31 -14 66 -14 47 0 58 4 82 30 23 25 32 29 58 24 17 -3 39
-1 49 4 11 6 62 11 114 13 97 3 150 13 150 31 0 5 -16 8 -35 6 -22 -1 -39 3
-44 10 -4 7 -25 12 -47 12 -21 -1 -64 2 -95 6 -33 4 -77 2 -105 -5 -27 -6 -70
-12 -96 -13 -62 -2 -80 -14 -34 -22 39 -7 49 -30 17 -39 -26 -6 -64 14 -76 41
-5 12 -15 22 -21 22 -7 0 -19 11 -28 25 -22 34 -51 48 -64 32z"/>
<path d="M13225 13354 c-55 -16 -83 -22 -165 -33 l-55 -8 30 -12 c40 -17 158
-21 280 -9 120 12 195 11 212 -3 6 -6 17 -8 22 -5 5 4 12 2 16 -4 11 -17 85
-9 85 9 0 7 -116 46 -206 70 -56 15 -158 12 -219 -5z"/>
<path d="M16305 13319 c-38 -5 -77 -12 -85 -15 -8 -4 -26 -7 -40 -8 -14 -1
-61 -8 -105 -16 l-80 -14 55 -11 c30 -6 79 -19 107 -29 51 -17 57 -17 180 4
121 20 131 20 183 5 66 -20 157 -23 185 -7 18 10 15 11 -22 12 -23 0 -45 5
-48 10 -3 6 -19 10 -35 10 -16 0 -32 5 -35 10 -3 6 -20 10 -37 10 -26 0 -29 2
-18 15 10 12 10 15 -1 16 -8 1 -25 3 -39 5 -77 11 -101 11 -165 3z"/>
<path d="M14720 13291 c0 -5 6 -12 13 -14 9 -4 8 -8 -3 -16 -12 -9 -12 -11 3
-17 9 -3 15 -10 12 -14 -6 -10 13 -16 70 -25 52 -8 127 -26 140 -34 13 -8 114
-6 185 4 33 4 64 15 78 28 27 25 29 63 3 70 -13 3 -18 0 -15 -8 10 -26 -37
-35 -183 -35 -74 0 -126 5 -155 15 -24 8 -53 15 -65 15 -13 0 -32 9 -43 20
-21 21 -40 26 -40 11z"/>
<path d="M12747 13274 c-6 -7 -186 -44 -213 -44 -42 0 -34 -26 11 -39 43 -13
160 -11 182 2 7 4 60 12 119 18 100 9 109 8 151 -12 34 -16 54 -20 88 -15 25
4 47 11 49 15 6 9 -102 46 -111 38 -3 -4 -16 -1 -27 6 -12 8 -39 17 -61 21
-51 10 -181 17 -188 10z"/>
<path d="M17219 13259 c-47 -4 -103 -12 -125 -18 -21 -6 -59 -11 -84 -12 -25
0 -63 -3 -85 -7 l-40 -7 71 -23 c62 -20 85 -22 189 -17 124 6 134 9 191 62
l31 29 -31 0 c-17 -1 -70 -4 -117 -7z"/>
<path d="M14330 13227 c0 -9 12 -22 28 -29 15 -8 36 -19 47 -25 11 -5 30 -15
41 -21 12 -6 41 -16 65 -22 24 -7 52 -19 61 -27 29 -26 171 -17 346 22 26 6
20 25 -8 25 -10 0 -20 5 -22 10 -2 7 -41 7 -123 -1 -117 -11 -218 -7 -239 10
-6 4 -36 17 -66 27 -30 10 -57 22 -60 26 -4 4 -20 11 -38 14 -25 5 -32 3 -32
-9z"/>
<path d="M15839 13226 c-3 -3 -27 -7 -54 -10 -28 -2 -86 -11 -130 -20 -44 -8
-96 -16 -115 -18 -33 -3 -32 -4 25 -21 33 -9 74 -22 91 -27 34 -11 84 -6 174
16 30 8 74 14 98 14 24 0 51 4 61 10 13 7 27 3 54 -15 37 -26 100 -32 142 -16
19 8 19 9 -5 16 -14 5 -31 8 -37 7 -7 -2 -13 2 -13 8 0 6 -10 8 -26 4 -18 -5
-25 -3 -20 4 4 6 -2 8 -14 5 -12 -3 -36 5 -60 21 -32 21 -51 26 -103 26 -35 0
-66 -2 -68 -4z"/>
<path d="M16711 13181 c-8 -5 -28 -9 -45 -9 -17 0 -59 -5 -94 -12 -34 -6 -67
-8 -72 -5 -5 3 -20 -1 -34 -10 -17 -12 -38 -14 -77 -10 -72 7 -46 -8 58 -34
80 -20 83 -20 222 -2 102 13 153 16 184 9 23 -5 57 -12 74 -15 18 -3 30 -9 27
-14 -3 -5 20 -9 51 -9 41 0 56 3 53 13 -3 6 -13 14 -24 16 -10 2 -21 7 -24 12
-3 4 -17 9 -32 11 -15 2 -30 7 -34 11 -4 4 -17 7 -28 7 -12 0 -30 6 -41 14
-11 7 -38 16 -60 20 -22 4 -51 9 -65 11 -14 3 -31 1 -39 -4z"/>
<path d="M12236 13173 c-6 -7 -114 -26 -138 -25 -16 1 -28 -3 -28 -7 0 -5 -10
-9 -22 -10 -55 -3 -72 -7 -75 -17 -4 -12 20 -18 113 -30 38 -5 67 -1 105 12
77 25 279 27 306 1 20 -18 84 -22 132 -8 21 6 15 10 -40 26 -35 10 -70 23 -77
28 -7 5 -15 7 -19 4 -3 -4 -15 -1 -26 4 -11 6 -36 13 -56 16 -41 5 -171 9
-175 6z"/>
<path d="M13910 13165 c0 -19 54 -54 107 -71 36 -11 70 -30 91 -51 31 -31 37
-33 105 -33 74 0 232 24 251 38 6 4 25 9 41 11 40 4 41 7 7 23 -21 11 -58 14
-143 12 -62 -2 -120 -7 -129 -10 -19 -9 -70 -11 -70 -3 0 9 -41 21 -62 20 -9
-1 -19 3 -23 8 -3 6 -25 16 -48 22 -23 6 -44 15 -47 19 -7 11 -80 24 -80 15z"/>
<path d="M15265 13128 c-33 -4 -80 -10 -105 -12 -43 -5 -100 -19 -145 -36 -17
-6 -14 -9 20 -19 65 -19 166 -24 230 -11 153 29 236 32 264 6 25 -23 141 -23
141 0 0 11 -5 14 -16 10 -8 -3 -22 0 -29 8 -17 16 -84 29 -145 28 -33 -1 -40
1 -25 7 19 8 18 10 -8 20 -29 11 -81 11 -182 -1z"/>
<path d="M16125 13088 c-16 -4 -61 -12 -100 -18 -105 -14 -187 -31 -180 -39 4
-3 45 -15 91 -27 59 -15 95 -19 122 -14 20 4 82 17 136 28 54 11 106 18 115
15 19 -6 45 -16 91 -36 23 -10 50 -14 78 -10 46 6 53 26 11 31 -13 2 -28 9
-34 16 -5 6 -37 18 -70 25 -33 7 -69 18 -80 24 -25 14 -140 17 -180 5z"/>
<path d="M13505 13071 c-3 -12 -14 -21 -23 -22 -11 0 -9 -4 8 -11 14 -5 70 -9
125 -9 392 4 486 32 142 42 -111 3 -212 9 -224 13 -16 6 -23 3 -28 -13z"/>
<path d="M14735 13030 c-22 -4 -69 -13 -105 -20 -36 -6 -86 -15 -111 -20 -25
-5 -56 -6 -69 -3 -16 4 -21 3 -16 -5 4 -7 24 -12 46 -12 21 0 73 -7 116 -16
66 -14 88 -14 148 -4 208 37 217 38 223 24 3 -8 14 -14 25 -14 14 0 18 -5 14
-15 -4 -12 4 -15 42 -14 26 1 60 4 76 8 34 7 48 31 18 31 -11 0 -22 5 -24 11
-2 5 -20 11 -41 12 -20 1 -37 7 -37 13 0 6 -15 14 -32 18 -53 11 -230 15 -273
6z"/>
<path d="M17149 13036 c-2 -2 -49 -7 -104 -11 -142 -9 -142 -9 -227 -24 -43
-8 -78 -17 -78 -21 0 -19 103 -35 225 -35 124 0 132 1 172 27 23 15 45 32 48
39 10 14 -23 37 -36 25z"/>
<path d="M13995 13019 c-22 -4 -96 -8 -165 -8 -90 0 -133 -4 -153 -14 -45 -24
-12 -36 117 -43 114 -7 272 10 246 26 -7 5 -6 11 4 20 15 11 13 31 -2 29 -4
-1 -25 -5 -47 -10z"/>
<path d="M15678 13005 c-3 -3 -44 -10 -133 -20 -104 -12 -244 -40 -237 -47 5
-5 44 -15 88 -24 67 -13 100 -13 213 -4 74 7 144 15 156 20 33 13 105 1 98
-16 -4 -11 11 -14 78 -14 64 0 80 3 71 12 -14 14 -69 16 -97 3 -17 -8 -18 -7
-7 7 11 13 5 18 -40 36 -29 11 -63 23 -75 27 -13 3 -23 9 -23 13 0 7 -85 14
-92 7z"/>
<path d="M13185 12934 l-50 -36 -85 8 c-125 11 -218 7 -235 -10 -8 -7 -31 -17
-52 -22 l-38 -8 50 -7 c196 -27 274 -31 379 -21 60 6 113 15 118 20 6 6 -7 8
-35 5 -56 -7 -70 10 -34 41 21 17 47 66 35 66 -2 0 -26 -16 -53 -36z"/>
<path d="M14280 12942 c-30 -2 -59 -7 -65 -12 -6 -5 -42 -10 -80 -11 -39 -1
-74 -5 -80 -8 -5 -3 -19 -5 -30 -6 -11 -1 -36 -2 -54 -3 -22 -1 -31 -6 -25
-11 16 -16 201 -42 246 -36 84 12 278 18 278 8 0 -12 117 -24 148 -16 32 8 27
20 -10 28 -18 4 -36 12 -39 17 -8 12 -149 48 -199 51 -19 1 -60 1 -90 -1z"/>
<path d="M16469 12946 c-2 -2 -22 -6 -44 -10 -53 -8 -154 -24 -185 -30 -14 -2
-43 -5 -65 -6 l-40 -2 30 -9 c96 -32 206 -48 262 -39 32 4 107 11 166 15 96 6
116 4 178 -15 56 -18 79 -21 126 -14 l58 7 -45 12 c-25 6 -52 14 -60 18 -33
14 -107 30 -145 30 -22 0 -32 2 -22 4 26 7 20 20 -14 32 -30 10 -190 16 -200
7z"/>
<path d="M12002 12920 c-12 -5 -50 -12 -84 -15 -33 -3 -69 -10 -79 -15 -10 -6
-31 -10 -48 -10 -16 0 -32 -4 -35 -8 -8 -13 98 -36 130 -28 107 23 144 27 267
27 108 1 137 4 137 15 0 14 -74 39 -90 29 -6 -3 -10 -1 -10 4 0 14 -155 14
-188 1z"/>
<path d="M15058 12895 c-5 -5 -19 -7 -145 -21 -35 -4 -63 -11 -63 -15 0 -5
-14 -9 -32 -9 -50 0 -21 -16 63 -34 78 -17 153 -16 292 6 70 10 189 -2 234
-24 24 -12 93 -3 93 12 0 6 -11 10 -24 10 -13 0 -26 6 -29 14 -3 7 -20 16 -39
19 -18 2 -46 9 -63 15 -78 27 -108 32 -192 32 -49 0 -92 -2 -95 -5z"/>
<path d="M13680 12851 c-19 -5 -78 -16 -130 -26 -52 -9 -103 -19 -113 -22 -29
-8 -10 -20 40 -26 27 -3 71 -11 98 -17 53 -11 166 0 235 23 39 13 120 10 135
-4 5 -5 17 -9 28 -9 10 0 15 -4 12 -10 -9 -15 79 -18 114 -5 18 7 -60 55 -90
55 -21 0 -71 21 -80 33 -9 12 -206 18 -249 8z"/>
<path d="M15960 12851 c-14 -4 -70 -13 -125 -20 -55 -7 -108 -17 -117 -22 -10
-5 -27 -9 -37 -9 -11 0 -22 -4 -25 -9 -3 -5 34 -17 82 -28 73 -17 101 -19 172
-11 47 5 98 13 114 18 47 16 120 11 180 -11 42 -16 66 -20 101 -14 l46 6 -37
20 c-21 10 -53 19 -71 19 -17 0 -36 6 -40 13 -21 35 -184 68 -243 48z"/>
<path d="M14565 12802 c-16 -2 -34 -8 -39 -13 -6 -5 -41 -9 -78 -9 -42 0 -68
-4 -68 -11 0 -6 -9 -8 -20 -4 -12 4 -27 1 -35 -5 -9 -8 -29 -10 -52 -6 -35 6
-37 5 -19 -9 11 -8 35 -15 54 -15 19 0 62 -7 95 -16 67 -17 153 -13 220 10 58
20 145 14 199 -13 37 -19 55 -22 92 -17 25 4 48 11 50 15 3 4 -18 16 -45 26
-36 12 -47 20 -37 26 9 6 6 9 -12 8 -26 0 -75 9 -100 19 -30 11 -159 21 -205
14z"/>
<path d="M16935 12790 c-106 -9 -255 -29 -280 -37 -11 -4 -46 -6 -78 -4 -40 1
-56 -2 -52 -9 4 -6 14 -10 23 -9 10 1 24 -1 32 -4 8 -3 45 -15 83 -26 55 -17
76 -19 118 -11 29 6 71 10 95 10 30 0 59 9 94 30 28 17 55 30 59 30 8 0 21 23
21 36 0 2 -8 3 -17 2 -10 -1 -54 -4 -98 -8z"/>
<path d="M13184 12758 c-4 -6 -3 -8 3 -5 6 4 18 -2 28 -13 18 -19 17 -20 -13
-31 -18 -6 -32 -17 -32 -24 0 -13 64 -6 123 15 21 7 48 3 122 -22 62 -19 104
-28 121 -24 l26 7 -24 18 c-32 26 -87 39 -125 30 -18 -3 -33 -3 -33 2 0 5 7 9
16 9 8 0 13 4 10 9 -6 10 -72 22 -139 26 -26 2 -54 6 -62 9 -8 3 -17 0 -21 -6z"/>
<path d="M15440 12750 c-19 -5 -60 -11 -90 -15 -30 -3 -86 -10 -125 -15 -38
-5 -81 -9 -94 -9 -47 -2 -2 -29 76 -46 67 -15 90 -16 182 -5 213 24 232 24
291 1 46 -18 60 -19 92 -9 21 6 38 14 38 18 0 4 -19 11 -42 15 -24 5 -46 9
-50 10 -5 1 -17 3 -28 4 -11 0 -20 7 -20 15 0 9 -16 16 -45 20 -24 4 -47 11
-50 17 -7 11 -86 10 -135 -1z"/>
<path d="M14029 12700 c-41 -4 -84 -12 -95 -17 -18 -10 -109 -24 -168 -27 -52
-2 -40 -23 16 -30 88 -11 188 -8 278 9 110 19 184 20 200 0 7 -8 21 -15 31
-15 10 0 21 -4 24 -10 7 -11 57 -13 106 -3 l33 6 -55 18 c-30 10 -69 18 -86
18 -18 1 -33 5 -33 10 0 5 -14 13 -31 16 -23 5 -28 9 -18 16 10 6 7 9 -12 9
-14 0 -46 2 -70 4 -24 2 -78 1 -120 -4z"/>
<path d="M16339 12706 c-3 -3 -30 -8 -60 -10 -65 -6 -268 -42 -275 -49 -3 -2
34 -17 81 -32 60 -19 96 -25 118 -21 62 13 143 26 198 31 77 7 190 -10 201
-30 7 -11 26 -15 73 -15 35 0 67 5 70 10 3 6 -3 10 -13 10 -11 0 -36 7 -57 15
-20 9 -44 14 -53 11 -9 -3 -24 -1 -32 4 -12 8 -10 10 10 10 36 0 7 17 -45 26
-22 3 -47 13 -56 21 -17 14 -149 30 -160 19z"/>
<path d="M14915 12649 c-27 -4 -95 -13 -150 -19 -55 -7 -108 -16 -117 -21 -9
-5 -33 -9 -52 -9 -63 0 -39 -16 45 -30 86 -14 199 -10 367 14 90 12 93 12 139
-11 33 -17 59 -23 92 -21 l46 3 -60 30 c-33 16 -67 30 -75 30 -8 1 -37 11 -64
23 -50 23 -85 25 -171 11z"/>
<path d="M15838 12615 c-2 -3 -29 -7 -59 -9 -30 -3 -74 -10 -99 -16 -25 -5
-61 -13 -80 -16 -51 -8 -110 -26 -110 -34 0 -4 19 -12 43 -18 91 -23 132 -24
217 -6 47 10 103 18 126 19 58 3 146 -17 167 -38 10 -10 26 -16 35 -13 9 3 29
8 44 11 38 9 26 38 -13 33 -16 -3 -29 -1 -29 4 0 10 -38 27 -140 64 -64 24
-92 29 -102 19z"/>
<path d="M14318 12535 c-6 -6 -126 -32 -200 -44 -55 -9 -67 -16 -49 -34 21
-21 285 -5 418 26 12 3 41 0 65 -7 60 -18 128 -26 128 -15 0 5 -9 9 -19 9 -11
0 -23 5 -26 10 -3 6 -17 7 -29 4 -17 -4 -31 2 -50 21 -14 14 -31 23 -38 19 -7
-4 -8 -3 -4 4 5 9 -20 12 -92 12 -54 0 -101 -2 -104 -5z"/>
<path d="M16685 12529 c-33 -4 -89 -11 -125 -14 -36 -3 -81 -10 -100 -16 -19
-5 -62 -9 -95 -10 l-60 0 70 -21 c89 -25 260 -35 335 -17 61 13 150 58 150 74
0 13 -88 14 -175 4z"/>
<path d="M15220 12485 c-47 -7 -85 -13 -85 -14 0 -2 -16 -4 -35 -6 -65 -7
-110 -17 -116 -26 -3 -5 -13 -9 -22 -9 -9 0 -35 -5 -57 -12 l-40 -11 30 -9
c40 -12 240 -1 340 19 54 10 106 14 157 10 43 -4 80 -3 82 2 3 5 -12 20 -33
34 -49 33 -111 39 -221 22z"/>
<path d="M12830 12463 c-14 -2 -30 -11 -37 -20 -8 -11 -20 -13 -44 -8 -24 5
-30 4 -24 -5 6 -9 4 -11 -5 -5 -12 7 -47 11 -200 18 -41 2 -79 5 -85 7 -5 1
-23 1 -40 0 -24 -2 -20 -4 18 -10 83 -14 78 -29 -11 -37 l-59 -6 11 -29 c9
-23 8 -31 -4 -39 -12 -9 -12 -10 3 -5 10 3 35 6 55 6 29 0 34 3 22 11 -11 8
-9 9 10 3 14 -3 29 -13 33 -20 4 -8 13 -14 20 -14 7 0 6 4 -3 10 -11 7 -3 10
28 10 24 0 41 -3 39 -7 -3 -5 7 -8 21 -8 15 0 40 -4 55 -8 19 -5 27 -4 22 3
-3 6 3 10 15 10 12 0 18 -4 15 -10 -3 -5 1 -10 10 -10 9 0 13 5 9 11 -4 8 1 9
17 3 13 -5 36 -8 51 -8 15 1 25 -3 22 -8 -3 -5 34 -7 84 -6 52 2 88 -1 84 -6
-3 -5 4 -7 15 -4 12 3 51 3 87 -1 37 -4 67 -3 69 2 1 5 19 2 38 -6 25 -10 49
-13 78 -7 22 4 41 4 41 -1 0 -4 30 -6 68 -4 45 3 62 1 52 -5 -13 -8 -12 -10 3
-10 10 0 28 5 39 11 12 6 18 7 14 1 -3 -5 8 -12 24 -14 16 -3 31 0 33 6 3 7
12 6 30 -3 17 -9 40 -12 67 -7 27 4 39 3 35 -4 -4 -6 13 -10 45 -10 32 0 49 4
45 10 -3 6 -2 10 4 10 5 0 12 -4 15 -9 8 -13 75 -19 79 -7 2 7 12 7 29 -1 19
-8 28 -9 37 0 7 7 11 7 11 1 0 -6 36 -9 95 -8 52 1 93 -2 90 -6 -3 -5 26 -8
65 -7 38 1 70 0 70 -3 0 -3 19 -4 43 -3 31 2 37 1 22 -6 -16 -7 -12 -9 20 -9
160 0 283 -7 278 -15 -6 -10 24 -6 62 8 16 5 17 5 5 -4 -12 -8 -8 -11 20 -12
19 -1 40 0 45 1 6 2 24 5 40 7 23 3 27 2 15 -6 -11 -8 3 -11 55 -13 39 -1 106
-3 150 -4 44 -1 82 -3 85 -4 3 -1 30 -3 60 -5 253 -13 339 -17 430 -20 93 -3
245 -11 380 -21 181 -12 258 -16 352 -17 59 -1 105 -4 103 -7 -4 -7 148 -13
360 -13 177 -1 192 2 306 51 57 25 74 45 27 31 -43 -12 -47 -11 -24 6 11 8 18
16 15 17 -34 21 -48 24 -80 17 -38 -9 -57 -10 -154 -8 -33 0 -68 -2 -78 -6
-12 -5 -25 1 -42 19 -24 26 -70 35 -77 16 -8 -25 -243 -28 -252 -3 -8 19 -126
16 -126 -3 0 -8 -6 -14 -14 -14 -8 0 -13 8 -12 17 1 14 -6 17 -33 15 -20 -2
-37 1 -42 9 -6 10 -19 10 -61 1 -29 -6 -77 -11 -107 -10 -52 0 -54 1 -30 15
23 13 22 14 -18 11 -24 -2 -43 0 -43 5 0 4 -37 5 -81 1 -65 -5 -80 -4 -74 6 5
8 4 11 -2 7 -13 -8 -144 14 -138 24 9 14 -30 15 -41 0 -15 -19 -131 -22 -146
-4 -14 17 -86 17 -119 -1 -46 -24 -79 -28 -79 -11 0 9 4 14 8 11 4 -2 14 -1
22 4 11 7 9 11 -10 18 -30 11 -192 3 -184 -9 7 -12 -1 -11 -49 3 -35 11 -41
10 -53 -7 -8 -10 -14 -15 -14 -9 0 10 -69 34 -101 34 -15 0 -19 -4 -15 -16 5
-13 1 -15 -20 -10 -63 16 -86 18 -93 8 -4 -7 -19 -6 -46 4 -53 18 -72 18 -79
-3 -5 -12 -9 -14 -18 -5 -7 7 -18 12 -24 12 -7 0 -25 5 -41 12 -15 7 -46 13
-68 13 -22 1 -49 5 -60 9 -16 6 -17 6 -5 -3 11 -8 3 -11 -37 -11 -28 0 -54 -4
-58 -10 -3 -5 -13 -6 -21 -3 -14 5 -14 7 2 16 17 10 17 11 -1 18 -11 4 -36 5
-55 3 -26 -4 -31 -3 -20 5 21 15 2 27 -20 13 -11 -7 -33 -12 -50 -12 -16 0
-30 -5 -30 -11 0 -7 -11 -8 -32 -3 -18 4 -37 6 -43 6 -45 -6 -141 -10 -147 -5
-5 2 -4 11 3 19 10 12 9 17 0 27 -10 9 -11 8 -6 -5 6 -15 2 -18 -25 -18 -18 0
-29 -4 -25 -10 3 -5 -4 -10 -16 -10 -17 0 -19 3 -10 13 16 20 2 28 -36 21 -20
-4 -39 -2 -47 5 -11 10 -16 8 -20 -6 -4 -14 -16 -19 -41 -20 -19 -1 -38 3 -41
8 -3 5 -20 9 -39 9 -18 0 -40 6 -47 13 -18 17 -52 14 -123 -11 -76 -26 -291
-47 -403 -38 -91 7 -137 22 -166 55 -19 21 -19 21 4 46 13 14 22 24 19 24 -2
-1 -15 -4 -29 -6z"/>
<path d="M16179 12446 c-3 -3 -29 -8 -59 -11 -30 -3 -82 -14 -115 -24 -33 -10
-87 -27 -120 -36 -71 -22 -74 -23 -55 -35 22 -14 136 -12 231 5 114 19 269 30
269 19 0 -12 79 -34 120 -34 17 0 30 -4 30 -9 0 -12 42 -19 66 -10 17 6 16 8
-8 14 -16 4 -25 11 -23 16 3 5 -7 11 -22 15 -53 11 -98 27 -120 42 -14 8 -33
12 -48 8 -18 -5 -23 -3 -19 7 8 21 -108 51 -127 33z"/>
<path d="M15754 10339 c-3 -6 -18 -8 -32 -4 -27 5 -158 -16 -220 -36 -43 -14
-31 -29 24 -29 24 0 44 -4 44 -10 0 -5 -6 -10 -13 -10 -8 0 -24 -9 -36 -19
-13 -11 -29 -17 -37 -14 -23 8 -30 -28 -9 -43 20 -15 50 -10 75 11 8 7 30 16
47 20 18 3 35 11 38 16 4 5 21 9 40 9 19 0 37 5 40 10 3 6 17 10 29 10 28 0
60 43 51 70 -7 22 -32 33 -41 19z"/>
<path d="M15050 10131 c-85 -44 -157 -65 -213 -64 -36 1 -37 0 -23 -16 9 -10
16 -22 16 -28 0 -5 9 -18 19 -27 15 -14 24 -15 40 -7 11 6 30 11 44 11 13 0
27 3 31 7 4 4 40 8 81 8 55 1 79 5 93 18 11 10 26 15 34 12 9 -4 18 1 21 9 8
20 27 21 27 2 0 -8 13 -17 30 -21 35 -8 47 -22 31 -38 -14 -14 -14 -34 -1 -50
5 -7 21 -26 35 -44 29 -36 69 -48 109 -33 25 9 28 14 23 40 -7 34 -35 70 -55
70 -10 0 -13 8 -10 25 3 16 1 25 -7 25 -7 0 -18 7 -26 16 -7 8 -21 13 -31 10
-13 -3 -22 3 -28 17 -5 12 -9 18 -9 13 -2 -17 -41 27 -41 45 0 24 -9 28 -67
34 -41 4 -58 -1 -123 -34z"/>
<path d="M16433 10089 c-6 -6 -36 -12 -66 -13 -30 -1 -62 -7 -70 -15 -19 -15
-72 -18 -144 -7 -57 8 -66 0 -33 -29 15 -14 23 -15 34 -6 18 15 28 -6 13 -30
-8 -12 -3 -23 20 -48 31 -32 52 -38 70 -20 5 5 46 11 90 13 63 2 87 7 117 25
62 39 72 106 13 94 -28 -6 -30 -5 -23 20 7 28 -2 35 -21 16z"/>
<path d="M15855 9941 c-3 -5 -20 -13 -38 -16 -17 -4 -45 -13 -62 -20 -49 -22
-145 -47 -181 -47 -19 0 -31 -4 -28 -9 3 -5 13 -9 22 -9 14 0 14 -2 -2 -13
-16 -12 -14 -17 31 -64 40 -43 51 -49 65 -40 14 9 24 8 48 -6 28 -17 31 -17
47 -2 9 10 26 15 40 12 14 -2 27 1 31 10 5 8 23 15 41 15 17 1 34 5 37 10 6
10 74 11 74 1 0 -5 14 -16 31 -26 24 -13 29 -20 21 -30 -16 -19 -3 -57 19 -57
21 0 26 -16 7 -23 -7 -2 1 -4 19 -5 17 0 37 6 44 14 6 8 18 14 27 14 12 0 10
6 -9 26 -13 14 -23 35 -21 45 4 25 -15 49 -39 49 -22 0 -23 4 -9 30 8 16 5 19
-20 25 -28 6 -44 35 -19 35 5 0 7 4 4 10 -3 5 -1 19 5 30 9 17 8 20 -9 20 -11
0 -22 -6 -24 -12 -4 -8 -6 -7 -6 3 -1 24 -25 41 -38 28 -8 -8 -13 -8 -17 0 -9
13 -83 15 -91 2z"/>
<path d="M17126 9821 c-4 -5 -27 -9 -52 -9 -25 0 -53 -7 -62 -14 -12 -10 -42
-14 -95 -14 -67 1 -78 -1 -83 -18 -6 -19 45 -102 62 -99 53 9 75 10 79 3 9
-14 99 1 150 25 60 29 78 43 94 74 11 19 10 26 -1 36 -17 17 -85 28 -92 16z"/>
<path d="M15336 9781 c-4 -6 -19 -10 -34 -9 -45 1 -132 -25 -132 -41 0 -10 -8
-12 -29 -8 -22 5 -34 0 -50 -17 -16 -17 -30 -22 -55 -19 -46 5 -62 -16 -43
-54 22 -41 85 -103 106 -103 27 0 81 21 81 31 0 5 19 9 43 9 23 0 76 1 117 2
82 3 78 6 112 -79 14 -35 36 -45 79 -36 39 8 58 62 32 92 -9 12 -23 21 -29 21
-7 0 -12 6 -11 13 1 48 -7 67 -53 115 -35 37 -56 51 -68 48 -11 -4 -21 1 -27
16 -11 25 -30 34 -39 19z"/>
<path d="M16502 9664 c-12 -8 -28 -14 -35 -11 -13 5 -67 -23 -67 -35 0 -4 -14
-2 -31 4 -24 8 -37 8 -50 -1 -10 -6 -30 -11 -44 -11 -34 0 -32 -15 5 -37 19
-11 30 -26 30 -39 0 -30 24 -48 55 -40 18 5 25 2 25 -8 0 -25 16 -27 77 -10
32 9 78 21 103 26 24 6 56 19 71 30 27 21 52 18 44 -5 -3 -7 8 -21 25 -32 18
-12 30 -29 30 -41 0 -13 8 -24 21 -27 13 -3 19 -12 17 -24 -3 -15 4 -18 44
-17 59 0 66 7 39 35 -12 13 -20 28 -18 34 6 14 -21 65 -33 65 -6 0 -10 8 -11
18 -1 29 -33 76 -67 97 -17 11 -31 26 -32 33 0 19 -169 16 -198 -4z"/>
<path d="M14665 9571 c-23 -21 -129 -56 -144 -47 -16 11 -60 -16 -63 -38 -3
-22 -34 -27 -70 -11 -14 5 -18 2 -18 -14 0 -12 5 -21 10 -21 6 0 22 -12 35
-26 22 -24 27 -25 56 -15 46 16 72 14 65 -4 -4 -11 1 -15 19 -15 13 0 27 5 30
10 3 6 15 10 26 10 11 0 38 12 60 26 34 21 45 24 70 15 18 -6 31 -6 34 0 11
16 22 10 46 -25 13 -19 32 -37 41 -40 24 -6 23 -23 -2 -36 -27 -15 -25 -36 5
-56 22 -14 42 -16 129 -10 l102 6 32 -47 c57 -86 74 -100 118 -98 21 1 47 -2
57 -7 13 -7 30 -4 53 7 22 10 46 14 64 10 24 -5 30 -3 30 10 0 13 7 15 35 9
23 -4 41 -2 50 6 13 11 19 9 36 -11 12 -13 25 -23 29 -22 4 1 7 -12 6 -30 -1
-26 3 -33 21 -35 13 -2 20 -8 17 -16 -8 -20 23 -27 79 -17 14 2 7 42 -8 47 -9
4 -13 13 -10 24 6 20 -4 52 -15 45 -4 -2 -12 7 -18 20 -7 14 -16 25 -22 25 -5
0 -9 15 -8 32 2 26 -2 35 -19 43 -13 5 -23 18 -23 29 0 13 -5 17 -18 14 -15
-4 -18 -1 -14 18 4 21 0 24 -29 25 -19 1 -53 2 -77 3 -24 1 -46 -2 -48 -6 -3
-5 -16 -8 -30 -8 -13 0 -24 -4 -24 -9 0 -5 -22 -11 -50 -15 -27 -4 -52 -11
-55 -16 -3 -6 -20 -10 -37 -10 -17 0 -40 -8 -51 -17 -15 -13 -21 -15 -24 -5
-3 6 -15 12 -28 12 -13 0 -27 5 -30 10 -4 6 -15 8 -26 5 -14 -5 -19 -2 -19 13
0 16 -129 162 -144 162 -2 0 -17 5 -32 10 -26 10 -26 11 -9 30 17 19 17 20 0
27 -10 3 -27 15 -37 25 -21 21 -54 24 -62 6 -5 -10 -7 -10 -12 0 -9 18 -57 15
-79 -7z"/>
<path d="M17800 9561 c0 -26 -17 -36 -35 -21 -10 8 -18 8 -33 -1 -11 -7 -27
-9 -38 -4 -11 4 -48 8 -84 9 -36 1 -75 6 -87 10 -13 4 -23 3 -23 -2 0 -16 90
-72 116 -72 16 0 19 -16 4 -25 -14 -9 -12 -41 4 -54 16 -13 46 -5 46 13 0 14
35 14 70 -1 19 -8 30 -7 47 6 12 9 23 19 23 23 0 4 12 3 27 -3 23 -9 30 -7 45
13 10 13 18 26 18 31 0 4 7 7 15 7 19 0 49 46 40 61 -5 7 -24 10 -56 6 -35 -4
-51 -2 -59 9 -18 20 -40 17 -40 -5z"/>
<path d="M16045 9502 c-4 -10 -9 -11 -18 -4 -6 5 -19 8 -27 6 -8 -2 -28 -7
-45 -10 -16 -4 -42 -15 -57 -25 -14 -11 -35 -19 -46 -19 -11 0 -37 -7 -57 -16
-21 -8 -41 -11 -44 -7 -6 10 -81 13 -81 3 0 -3 25 -32 55 -64 50 -53 57 -57
82 -48 23 7 34 4 61 -16 24 -18 44 -25 72 -24 44 2 120 29 120 43 0 5 11 9 25
9 14 0 25 5 25 10 0 6 7 10 15 10 8 0 15 -5 15 -11 0 -6 7 -17 15 -25 8 -9 15
-25 15 -37 1 -28 25 -61 39 -52 10 5 15 -7 12 -27 -2 -12 35 -10 63 3 38 18
41 39 6 39 -28 0 -28 1 -19 32 10 38 4 64 -17 72 -10 4 -13 2 -8 -7 6 -9 4 -9
-8 1 -9 7 -19 28 -22 47 -5 24 -11 32 -21 28 -17 -6 -21 12 -5 22 17 11 11 28
-9 22 -13 -3 -22 3 -29 17 -13 29 -98 51 -107 28z"/>
<path d="M17384 9432 c8 -25 2 -27 -42 -11 -24 8 -35 7 -55 -6 -17 -11 -27
-13 -32 -6 -10 17 -34 13 -52 -9 -14 -16 -25 -19 -59 -14 -37 5 -44 2 -54 -16
-10 -19 -14 -20 -28 -8 -22 19 -112 22 -112 5 0 -6 21 -32 45 -56 25 -25 48
-54 51 -65 13 -42 53 -84 76 -81 41 5 83 18 89 27 3 5 20 11 37 13 17 2 49 9
72 15 34 9 52 8 96 -6 47 -15 52 -19 43 -36 -5 -10 -14 -16 -20 -13 -14 9 -11
-5 6 -21 8 -9 15 -24 15 -34 0 -16 4 -17 33 -9 31 8 77 50 77 70 0 5 -9 9 -20
9 -11 0 -20 7 -20 15 0 8 5 15 10 15 18 0 11 29 -9 40 -11 5 -21 22 -23 37 -2
16 -8 28 -15 28 -6 0 -14 3 -18 7 -4 4 -13 4 -21 1 -14 -5 -19 13 -16 62 0 11
-13 31 -30 44 -30 24 -30 24 -24 3z"/>
<path d="M18565 9338 c-11 -6 -25 -18 -31 -26 -6 -9 -20 -13 -31 -10 -13 3
-24 -1 -31 -13 -9 -14 -17 -16 -41 -9 -24 7 -33 4 -52 -16 -13 -14 -34 -24
-49 -24 -15 0 -30 -3 -33 -7 -8 -7 13 -42 50 -84 24 -27 28 -28 52 -14 44 23
87 34 102 24 8 -5 24 -9 36 -9 17 0 20 5 17 23 -2 12 -2 16 2 10 4 -10 11 -9
30 3 13 9 30 14 38 11 17 -7 35 27 38 73 2 19 6 37 10 40 4 3 -2 14 -13 23
-20 17 -20 17 -19 0 4 -33 0 -43 -15 -43 -8 0 -15 5 -15 10 0 6 -6 10 -14 10
-9 0 -12 7 -9 20 6 23 5 23 -22 8z"/>
<path d="M14247 9282 c-19 -20 -23 -37 -7 -27 6 3 10 -2 10 -12 0 -10 7 -29
16 -41 9 -13 19 -34 23 -47 3 -14 10 -24 15 -24 5 0 12 -4 15 -9 3 -6 17 -12
31 -13 41 -4 147 3 122 8 -15 3 -29 17 -38 40 -13 31 -19 35 -45 31 -30 -5
-52 10 -48 34 4 23 -13 48 -42 63 -35 19 -33 19 -52 -3z"/>
<path d="M16850 9272 c-19 -2 -39 -8 -44 -13 -6 -5 -23 -9 -38 -9 -16 0 -37
-6 -48 -12 -16 -10 -24 -10 -39 -1 -16 10 -22 8 -37 -8 -12 -13 -28 -19 -49
-18 -17 2 -35 0 -40 -3 -6 -4 -43 -8 -83 -9 -81 -4 -107 -13 -80 -29 9 -6 44
-45 79 -88 34 -42 69 -80 78 -83 23 -9 83 1 102 17 8 8 23 14 32 14 9 0 17 4
17 9 0 6 20 13 45 17 25 3 48 10 51 15 7 12 51 11 59 -1 4 -6 10 -8 15 -5 15
9 54 -35 41 -48 -15 -15 18 -67 44 -67 11 0 29 7 39 15 16 12 17 17 6 30 -7 8
-16 13 -20 10 -15 -9 -20 12 -10 46 7 22 7 35 0 37 -5 2 -10 14 -10 27 0 15
-7 26 -19 30 -11 3 -21 16 -23 28 -2 12 -13 26 -25 32 -25 11 -30 34 -11 53
15 15 10 18 -32 14z"/>
<path d="M14842 9169 c-7 -10 -20 -19 -30 -18 -10 0 -12 3 -4 6 19 7 14 23 -8
23 -10 0 -23 -8 -29 -17 -7 -14 -12 -15 -24 -5 -12 10 -16 9 -20 -9 -4 -16
-11 -20 -26 -16 -12 3 -24 1 -27 -5 -4 -6 -21 -8 -39 -5 -21 3 -41 0 -54 -9
-12 -9 -26 -12 -31 -9 -12 8 -13 -5 -1 -24 5 -8 18 -12 30 -8 15 4 25 -1 33
-16 8 -16 8 -22 -1 -25 -16 -5 -14 -37 4 -52 8 -6 19 -9 25 -5 5 3 10 -1 10
-9 0 -24 16 -19 40 11 11 14 28 27 38 28 10 0 23 5 31 9 7 5 18 3 24 -3 8 -8
6 -11 -8 -12 -19 0 -19 -1 0 -9 15 -6 27 -2 45 15 21 20 32 23 73 18 31 -4 52
-12 61 -24 7 -10 27 -22 44 -25 33 -7 48 -29 33 -48 -7 -8 -2 -20 17 -36 35
-32 107 -31 118 2 3 12 1 24 -6 28 -7 5 -10 17 -7 29 6 23 -15 51 -37 51 -23
0 -41 29 -28 42 18 18 14 30 -8 23 -14 -5 -20 -2 -20 9 0 9 -4 16 -10 16 -13
0 -13 -17 0 -25 14 -9 3 -25 -17 -25 -9 0 -22 -8 -29 -17 -9 -13 -16 -15 -24
-7 -16 16 8 64 32 64 10 0 18 5 18 10 0 6 -7 10 -15 10 -20 0 -19 17 3 29 12
7 14 13 6 21 -8 8 -18 5 -37 -10 -15 -12 -27 -17 -27 -11 0 6 5 11 10 11 6 0
10 5 10 11 0 6 -7 9 -15 5 -9 -3 -20 3 -27 14 -15 24 -24 25 -46 4 -14 -15
-17 -15 -27 -1 -10 14 -13 13 -23 -4z"/>
<path d="M16256 9085 c-18 -10 -41 -13 -58 -10 -19 5 -39 -1 -69 -18 -35 -21
-46 -23 -66 -14 -18 8 -29 8 -44 -1 -10 -7 -28 -12 -38 -12 -11 0 -22 -4 -25
-9 -3 -5 -14 -7 -25 -4 -10 2 -35 0 -54 -5 -26 -7 -37 -7 -41 1 -2 7 -5 8 -5
2 0 -5 29 -41 64 -79 63 -68 64 -68 97 -57 22 8 34 8 36 1 5 -13 32 -13 32 0
0 17 30 11 61 -11 l29 -20 34 26 c20 15 40 24 46 20 5 -3 15 -3 22 1 7 4 26 9
43 10 16 1 22 0 13 -3 -27 -7 -21 -19 9 -18 18 0 28 -5 29 -15 4 -59 2 -56 19
-34 13 16 16 17 25 4 15 -23 12 -38 -10 -45 -19 -6 -29 -25 -12 -25 26 0 81
23 86 35 3 8 1 15 -4 15 -6 0 -10 7 -10 15 0 9 -7 18 -16 22 -10 4 -14 13 -10
29 4 16 -1 30 -19 48 -14 14 -25 32 -25 41 0 8 -9 15 -20 15 -17 0 -20 7 -20
41 0 28 -6 46 -17 55 -23 17 -22 17 -57 -1z"/>
<path d="M17870 9081 c0 -6 -23 -8 -52 -6 -29 2 -55 0 -58 -6 -4 -5 -25 -10
-48 -12 -23 -1 -42 -5 -42 -8 0 -15 -50 -26 -96 -22 -33 4 -54 1 -59 -6 -5 -8
1 -10 19 -5 19 5 26 2 26 -9 0 -8 -10 -15 -22 -16 -61 -3 -96 -9 -109 -17 -41
-26 -65 -34 -89 -29 -18 4 -35 -2 -60 -20 -38 -28 -45 -31 -34 -13 5 8 2 9
-12 3 -10 -4 -31 -8 -46 -9 -16 0 -28 -4 -28 -7 0 -4 -16 -10 -35 -13 -19 -4
-40 -12 -47 -19 -7 -7 -22 -13 -33 -14 -50 -2 -119 -13 -150 -23 -19 -6 -39
-9 -45 -5 -5 3 -10 2 -10 -3 0 -7 -34 -18 -107 -35 -7 -2 -16 -6 -19 -10 -4
-4 -16 -7 -26 -7 -10 0 -30 -7 -43 -16 -13 -9 -33 -13 -43 -9 -14 4 -26 -2
-41 -22 -11 -15 -21 -22 -21 -15 0 23 -26 12 -36 -17 -9 -22 -18 -28 -40 -29
-46 0 -88 -13 -103 -31 -12 -14 -13 -13 -9 11 4 24 2 27 -18 26 -12 -1 -25
-10 -27 -20 -4 -12 -15 -18 -35 -18 -17 0 -43 -5 -59 -12 -15 -6 -32 -10 -37
-9 -19 4 -66 -11 -60 -20 3 -5 0 -9 -5 -9 -6 0 -11 7 -11 15 0 21 -17 19 -23
-4 -3 -15 -21 -21 -78 -31 -78 -13 -143 -41 -159 -69 -7 -11 -9 -12 -10 -2 0
9 -6 11 -17 6 -10 -5 -27 -9 -38 -10 -48 -5 -95 -18 -95 -26 0 -5 -6 -9 -14
-9 -8 0 -16 -5 -18 -11 -2 -7 -12 -7 -32 1 -25 9 -27 8 -22 -6 6 -17 -4 -16
-45 0 -11 5 -27 -2 -44 -18 -29 -27 -45 -33 -45 -16 0 21 -30 9 -47 -20 -21
-35 -33 -39 -25 -7 5 21 4 21 -22 -5 -24 -23 -31 -25 -49 -15 -12 7 -24 15
-27 18 -7 9 -50 -9 -50 -21 0 -5 -6 -10 -14 -10 -8 0 -17 -8 -20 -17 -6 -15
-9 -15 -16 -3 -5 8 -7 18 -4 22 7 11 -59 -25 -68 -37 -7 -10 -10 -11 -63 -14
-24 -1 -27 -3 -15 -12 11 -8 4 -9 -28 -5 -31 5 -41 3 -40 -6 2 -9 -13 -15 -42
-18 -25 -3 -63 -14 -85 -26 -22 -11 -52 -20 -67 -19 -20 1 -28 -4 -28 -16 0
-23 -40 -33 -41 -11 0 11 -2 12 -6 5 -2 -7 -11 -13 -19 -13 -8 0 -14 6 -14 13
-1 6 -9 2 -19 -10 -10 -12 -21 -19 -25 -16 -3 4 -6 -1 -6 -11 0 -14 -6 -16
-35 -10 -23 4 -35 2 -35 -5 0 -6 -8 -11 -17 -11 -10 0 -26 -7 -37 -15 -11 -8
-30 -12 -47 -8 -25 5 -29 2 -29 -16 0 -11 -4 -21 -10 -21 -5 0 -10 4 -10 9 0
4 -11 6 -24 4 -13 -3 -27 0 -30 6 -11 18 -26 13 -26 -8 0 -11 -7 -26 -15 -35
-8 -8 -15 -20 -15 -26 0 -7 -14 -10 -37 -8 -30 2 -38 -1 -41 -15 -2 -9 1 -17
7 -17 6 0 11 -4 11 -10 0 -14 -27 -13 -32 2 -3 7 -9 8 -18 3 -8 -5 -24 -9 -36
-10 -13 0 -34 -13 -47 -27 -14 -15 -38 -30 -53 -34 l-28 -7 25 -9 c20 -8 28
-5 50 21 27 33 59 41 59 16 0 -8 -6 -15 -14 -15 -8 0 -16 -7 -19 -14 -4 -11
-1 -13 10 -9 12 5 14 3 8 -8 -7 -10 -1 -8 18 4 15 10 32 15 38 11 8 -4 9 1 4
16 -7 21 -5 22 20 18 24 -5 54 1 110 23 34 13 75 17 75 7 0 -6 12 -8 28 -4 21
4 23 4 7 -3 -11 -5 -29 -12 -40 -16 -17 -5 -18 -8 -5 -15 18 -10 110 -1 110
11 0 5 13 9 30 9 18 0 29 5 27 12 -1 6 16 17 37 23 24 7 42 19 47 33 7 18 13
20 44 15 28 -4 43 -1 66 16 16 12 33 19 38 16 13 -7 52 9 78 34 27 26 43 27
43 2 0 -14 7 -18 33 -16 17 1 40 5 50 9 9 5 23 6 31 3 8 -3 16 -1 18 5 6 16
80 39 94 27 7 -6 26 -3 55 11 24 11 56 20 71 20 15 0 29 4 32 9 3 4 26 11 52
14 26 2 50 11 54 18 5 7 16 14 25 15 9 1 26 9 38 16 12 8 45 15 74 16 38 0 58
6 74 21 25 23 109 54 136 49 10 -1 23 0 29 4 25 16 96 36 113 31 13 -3 21 2
26 16 5 17 15 21 53 21 32 0 66 10 106 30 32 16 68 30 80 29 18 0 201 37 201
41 0 0 24 3 53 6 34 3 67 13 92 30 22 15 46 24 54 21 9 -4 18 -2 21 3 11 17
133 70 148 64 9 -3 25 0 37 6 17 9 19 14 9 26 -8 10 -8 14 0 14 6 0 11 -4 11
-10 0 -16 40 -11 46 5 4 10 13 13 25 10 11 -4 44 -3 75 1 43 5 58 11 61 25 6
20 23 26 23 9 0 -7 6 -7 19 -1 40 22 114 42 144 40 34 -3 107 18 107 30 0 4
13 6 30 3 23 -3 47 7 107 45 50 32 91 50 113 51 35 2 58 10 114 40 22 11 48
13 115 8 168 -12 195 -16 217 -31 13 -8 32 -15 43 -15 11 0 23 -4 26 -10 3 -5
24 -10 46 -10 21 0 39 -4 39 -10 0 -5 11 -10 25 -10 17 0 25 -5 25 -18 0 -20
36 -46 52 -36 7 4 8 3 4 -5 -4 -6 -16 -9 -27 -6 -14 5 -17 3 -13 -9 3 -9 12
-16 19 -16 8 0 16 -9 20 -19 4 -12 12 -18 21 -14 17 6 20 -27 3 -44 -7 -7 0
-12 26 -17 20 -4 38 -6 40 -4 1 2 6 26 10 54 6 46 5 52 -14 57 -12 3 -21 13
-21 24 0 10 -5 24 -12 31 -8 8 -8 15 0 25 13 15 -11 43 -57 67 -24 12 -24 13
-5 28 14 11 15 13 2 9 -9 -3 -19 0 -22 9 -3 8 -13 14 -22 14 -9 0 -36 19 -58
43 -50 50 -80 69 -101 61 -8 -4 -21 -2 -28 4 -6 6 -29 13 -50 17 -20 4 -40 11
-43 16 -7 12 -34 12 -34 0z"/>
<path d="M14363 9022 c-3 -13 -13 -22 -24 -22 -11 0 -19 -5 -19 -11 0 -7 -9
-9 -22 -6 -12 4 -28 1 -35 -4 -7 -6 -18 -9 -25 -6 -7 2 -24 -1 -38 -8 -14 -7
-47 -16 -73 -20 -47 -7 -77 -26 -77 -47 0 -6 -10 -8 -25 -4 -14 4 -25 2 -25
-4 0 -5 -7 -10 -15 -10 -12 0 -13 -4 -3 -25 6 -14 19 -25 29 -25 10 0 21 -12
28 -30 5 -16 16 -31 23 -31 31 -3 54 5 85 28 33 25 70 28 116 8 14 -6 20 -2
24 14 3 12 16 24 32 27 14 4 31 11 38 16 17 13 27 -10 12 -28 -14 -17 -11 -21
16 -26 17 -2 20 2 18 27 -1 17 1 23 4 15 3 -8 14 -23 23 -33 16 -17 26 -47 33
-102 2 -17 11 -20 71 -23 75 -3 93 5 78 34 -6 11 -13 27 -16 37 -4 14 -12 17
-27 12 -19 -6 -21 -4 -15 18 5 22 3 26 -21 29 -16 2 -28 9 -28 16 0 8 -8 19
-17 26 -14 10 -15 15 -5 25 9 10 8 14 -5 22 -10 6 -18 20 -18 33 0 16 -7 25
-22 29 -13 2 -31 8 -40 12 -13 5 -18 3 -18 -9 0 -20 -7 -20 -26 -1 -9 8 -11
15 -5 15 13 0 35 40 26 48 -3 3 -8 -4 -12 -16z"/>
<path d="M19267 9023 c-4 -3 -39 -7 -78 -9 -39 -1 -74 -5 -77 -8 -3 -3 -16 -6
-29 -6 -12 0 -23 -5 -23 -11 0 -7 -10 -9 -25 -7 l-25 5 22 -36 c70 -118 80
-132 99 -126 11 4 45 7 77 8 41 2 67 9 89 25 17 12 36 22 43 22 6 0 32 20 56
45 64 67 59 105 -16 105 -30 0 -64 -25 -55 -41 4 -5 -1 -6 -9 -3 -9 3 -13 11
-10 16 10 16 -25 35 -39 21z"/>
<path d="M15643 8922 c-30 -8 -53 -21 -53 -28 0 -18 -10 -18 -32 3 -16 14 -18
14 -18 0 0 -17 -66 -33 -98 -23 -12 4 -22 1 -25 -6 -3 -8 -27 -14 -63 -16 -98
-5 -99 -6 -46 -65 26 -28 71 -76 101 -106 51 -52 54 -54 68 -35 8 11 23 18 35
16 14 -3 18 0 12 9 -5 9 -2 10 11 5 11 -4 25 0 36 10 13 12 29 15 55 11 30 -5
40 -2 59 19 18 20 27 23 47 15 29 -11 50 -34 46 -52 -2 -8 2 -13 8 -12 7 1 14
-7 17 -17 3 -11 1 -20 -4 -20 -5 0 -9 -4 -9 -10 0 -15 37 -12 70 5 28 15 42
45 20 45 -5 0 -10 11 -10 25 0 25 -20 37 -20 13 0 -7 -5 -5 -11 6 -8 13 -8 25
0 42 6 15 7 25 1 29 -6 4 -13 -1 -16 -9 -7 -17 -44 -22 -44 -6 0 6 7 10 15 10
22 0 0 41 -26 47 -23 6 -25 19 -4 27 8 3 15 15 15 27 0 15 -4 19 -16 15 -8 -3
-12 -2 -9 4 3 5 -6 12 -20 16 -14 3 -25 10 -25 15 0 11 -1 11 -67 -9z"/>
<path d="M18827 8909 c-16 -4 -52 -10 -80 -13 -31 -4 -54 -12 -60 -21 -5 -10
-16 -13 -32 -9 -14 3 -42 -3 -70 -15 -26 -12 -53 -21 -59 -21 -7 0 -21 -6 -31
-14 -19 -14 -19 -15 3 -57 29 -55 50 -81 85 -103 26 -18 28 -17 62 3 68 40
245 52 245 17 0 -8 7 -19 15 -26 8 -7 15 -25 15 -40 0 -15 11 -39 24 -54 20
-25 30 -28 72 -25 27 1 57 -1 67 -6 10 -4 20 -5 23 -2 9 9 -16 47 -31 47 -17
0 -20 16 -5 25 8 5 7 11 0 20 -7 8 -8 20 -4 27 6 10 4 10 -9 -1 -14 -11 -18
-11 -22 3 -3 9 -7 23 -10 32 -3 9 0 23 6 30 8 10 8 14 0 14 -6 0 -11 -4 -11
-10 0 -5 -4 -10 -10 -10 -5 0 -10 11 -10 24 0 34 -23 73 -62 107 -28 24 -31
30 -18 39 8 5 12 10 8 11 -24 5 -62 21 -68 29 -3 4 -18 3 -33 -1z"/>
<path d="M15065 8778 c-5 -14 -10 -17 -18 -9 -17 17 -40 14 -33 -4 4 -12 0
-14 -21 -9 -18 5 -24 4 -19 -5 5 -7 -2 -11 -20 -11 -15 0 -32 -7 -38 -16 -6
-8 -27 -17 -46 -20 -19 -3 -39 -9 -45 -13 -17 -14 -59 -20 -69 -12 -7 5 -19 1
-30 -10 -18 -17 -17 -19 28 -66 l45 -49 78 3 c103 4 155 3 165 -3 5 -3 16 0
25 7 22 19 43 17 75 -3 14 -10 33 -18 41 -18 20 0 31 -16 17 -25 -5 -3 -10
-11 -10 -18 0 -8 3 -8 12 1 7 7 16 12 20 12 14 0 9 -28 -8 -44 -14 -15 -12
-16 19 -16 44 0 90 34 67 50 -13 8 -13 10 3 10 19 0 21 8 8 29 -5 7 -14 10
-21 6 -9 -5 -10 -2 -5 14 5 17 2 21 -14 21 -12 0 -20 3 -19 8 1 4 -4 18 -12
32 -14 24 -15 29 -18 58 -1 9 -9 11 -23 7 -13 -5 -19 -3 -15 3 3 5 -6 17 -20
27 -20 13 -23 19 -14 30 17 21 3 37 -21 25 -15 -8 -21 -7 -25 4 -9 24 -32 27
-39 4z"/>
<path d="M13863 8648 c9 -94 19 -142 31 -150 6 -4 39 -8 72 -8 74 0 99 18 59
44 -14 9 -25 23 -25 30 0 13 -50 39 -75 39 -7 0 -10 8 -7 19 3 12 -1 18 -13
18 -12 0 -15 5 -10 20 4 11 2 20 -4 20 -6 0 -11 7 -11 15 0 8 -5 15 -11 15 -8
0 -9 -20 -6 -62z"/>
<path d="M18007 8612 c-9 -10 -17 -26 -17 -35 0 -19 -17 -32 -22 -16 -2 6 -14
8 -32 3 -24 -6 -27 -11 -24 -35 3 -20 0 -29 -9 -29 -7 0 -13 4 -13 9 0 15 -62
42 -82 35 -11 -3 -18 0 -18 8 0 15 -44 37 -83 40 -15 1 -27 6 -27 10 0 4 -7 8
-16 8 -8 0 -12 -4 -9 -10 3 -5 2 -10 -4 -10 -5 0 -11 5 -13 11 -4 12 -55 -13
-95 -45 -42 -36 -19 -106 35 -106 11 0 27 -6 34 -13 15 -15 85 -37 117 -37 11
0 21 -4 21 -10 0 -5 7 -10 15 -10 8 0 23 -9 32 -20 20 -22 43 -27 43 -7 0 9 2
9 8 0 9 -14 82 1 82 17 0 5 -7 7 -15 4 -8 -4 -15 -3 -15 1 0 3 7 13 15 21 8 9
15 24 15 34 0 11 7 23 15 27 8 5 16 20 17 33 2 14 11 32 21 41 9 9 17 22 17
29 0 6 10 20 23 30 16 13 19 22 11 30 -7 7 -15 5 -27 -8z"/>
<path d="M14430 8589 c0 -7 -11 -9 -27 -6 -36 7 -53 -1 -53 -25 0 -17 -3 -18
-15 -8 -10 9 -15 9 -15 1 0 -6 -8 -11 -17 -11 -10 0 -26 -7 -36 -14 -10 -8
-27 -12 -37 -9 -12 3 -20 0 -20 -6 0 -7 -4 -9 -10 -6 -10 6 -59 -42 -60 -59 0
-5 16 -29 36 -53 26 -32 41 -42 55 -38 10 3 29 1 41 -6 13 -6 20 -8 16 -4 -9
9 9 45 22 45 5 0 7 -7 4 -15 -9 -23 22 -19 39 5 9 12 20 18 30 14 8 -3 27 2
41 11 14 9 30 14 35 10 6 -3 36 -7 67 -9 65 -4 81 -17 90 -78 8 -50 23 -62 60
-48 47 18 99 75 62 68 -7 -2 -12 5 -12 15 1 9 -4 17 -11 17 -7 0 -11 8 -9 18
6 25 -10 44 -37 46 -17 1 -23 7 -21 19 2 9 -2 17 -8 17 -5 0 -10 11 -10 25 0
18 -5 25 -19 25 -11 0 -28 13 -38 30 -11 19 -23 28 -33 25 -8 -2 -22 0 -30 5
-9 5 -19 5 -27 -2 -9 -7 -13 -7 -13 1 0 6 -9 11 -20 11 -11 0 -20 -5 -20 -11z"/>
<path d="M16842 8506 c-23 -39 -28 -134 -17 -310 6 -84 4 -102 -9 -111 -17
-13 -29 -68 -21 -96 5 -15 15 -19 48 -18 70 2 90 11 91 42 1 16 6 31 11 35 11
7 35 48 35 57 0 4 -8 5 -17 4 -31 -3 -34 0 -23 21 13 24 3 26 -21 5 -15 -14
-18 -14 -32 -1 -11 12 -15 38 -13 120 0 57 -2 102 -6 99 -5 -2 -8 2 -8 10 0 7
3 17 8 21 10 10 12 156 2 156 -4 0 -17 -15 -28 -34z"/>
<path d="M19040 8422 c0 -5 -15 -9 -32 -9 -151 -1 -274 -9 -280 -18 -5 -6 -8
-4 -8 5 0 10 -5 7 -15 -7 -9 -13 -22 -20 -30 -17 -28 11 -27 -26 1 -84 16 -31
32 -59 35 -62 3 -3 11 -14 17 -25 10 -20 18 -21 128 -18 64 1 121 6 125 10 4
4 43 53 87 108 73 91 92 132 57 119 -8 -3 -11 -12 -8 -20 3 -8 0 -14 -6 -14
-6 0 -10 6 -8 13 1 6 -7 12 -18 12 -11 0 -26 4 -32 8 -7 5 -13 4 -13 -1z"/>
<path d="M13902 8390 c-18 -4 -42 -6 -52 -3 -10 3 -21 0 -24 -6 -4 -6 -19 -11
-33 -11 -13 0 -39 -10 -55 -22 -29 -20 -32 -20 -43 -4 -12 15 -13 15 -18 -5
-5 -17 -11 -20 -31 -15 -21 5 -24 3 -19 -10 5 -13 0 -15 -28 -12 -25 2 -34 -1
-37 -14 -2 -11 3 -18 13 -18 9 0 13 -5 10 -10 -4 -6 -14 -9 -23 -8 -9 2 -18
-5 -20 -14 -2 -11 3 -18 12 -18 8 0 19 -6 23 -13 16 -25 59 -44 103 -45 37 -2
48 2 66 25 21 27 25 28 120 27 73 0 107 -4 131 -17 38 -20 43 -28 49 -69 6
-51 25 -63 81 -52 39 7 49 13 51 32 2 12 -1 22 -7 22 -6 0 -11 7 -11 15 0 8
-4 15 -10 15 -5 0 -10 8 -10 18 0 11 -9 27 -20 37 -11 10 -20 29 -20 42 0 26
-9 29 -29 11 -11 -11 -12 -9 -7 9 5 16 1 29 -13 44 -11 12 -18 25 -16 30 3 4
-4 5 -15 2 -14 -4 -20 0 -20 11 0 9 -8 16 -19 16 -11 0 -23 5 -26 10 -7 11 -7
11 -53 0z"/>
<path d="M16458 8383 c-13 -14 -16 -31 -12 -67 5 -51 30 -116 45 -116 4 0 29
18 54 40 26 22 57 40 70 40 13 0 31 8 41 18 17 16 17 17 -4 20 -12 2 -20 7
-17 12 3 4 -10 15 -29 24 -19 9 -36 22 -39 30 -4 10 -15 12 -46 6 -23 -4 -42
-3 -43 2 -2 5 -11 1 -20 -9z"/>
<path d="M16332 8337 c-16 -19 -27 -71 -14 -63 17 11 3 -25 -21 -51 -20 -22
-16 -43 9 -43 8 0 14 -4 14 -10 0 -5 -6 -7 -14 -4 -9 3 -15 -5 -19 -25 -7 -34
6 -81 23 -81 5 0 10 -9 10 -20 0 -13 7 -20 19 -20 20 0 66 -48 84 -87 6 -13
18 -23 28 -23 10 0 21 -5 25 -11 9 -14 109 -5 130 11 7 7 25 9 38 6 14 -3 28
-2 31 4 3 5 1 10 -4 10 -20 0 -11 20 13 30 13 5 27 19 31 32 4 13 15 32 25 43
19 21 42 132 30 140 -11 7 -20 -6 -20 -27 0 -19 -43 -62 -63 -64 -7 0 -19 -3
-27 -6 -33 -12 -120 -24 -120 -17 0 8 -57 39 -74 39 -20 1 -66 49 -66 70 0 15
-6 20 -24 20 -26 0 -43 15 -27 24 6 4 6 20 0 42 -6 19 -7 49 -4 65 7 31 3 36
-13 16z"/>
<path d="M17100 8327 c0 -12 -5 -17 -14 -14 -7 3 -17 2 -22 -3 -11 -11 -111
-16 -120 -7 -12 12 -22 8 -26 -10 -2 -10 2 -23 10 -29 8 -5 14 -28 15 -51 1
-28 6 -39 15 -36 8 4 12 -5 12 -24 0 -23 7 -31 37 -44 35 -16 38 -15 86 9 46
25 51 25 90 11 61 -22 133 -11 163 25 30 34 30 42 2 57 -16 9 -23 9 -26 0 -2
-6 -8 -11 -14 -11 -7 0 -8 15 -4 39 6 42 -7 62 -27 42 -20 -20 -45 -12 -58 18
-13 29 -41 42 -96 45 -16 1 -23 -4 -23 -17z"/>
<path d="M18405 8280 c-22 -4 -43 -6 -47 -4 -3 2 -8 -1 -10 -6 -4 -13 -34 -16
-70 -7 -22 6 -30 3 -39 -14 -7 -15 -14 -18 -18 -10 -5 8 -16 7 -40 -5 -17 -9
-38 -13 -46 -11 -7 3 -16 -1 -19 -9 -3 -8 -19 -14 -36 -14 -16 0 -30 -2 -30
-5 0 -5 59 -83 113 -149 23 -29 23 -29 78 -16 30 7 59 15 64 19 26 15 172 24
180 11 3 -6 16 -10 29 -10 16 0 27 -10 39 -35 9 -20 17 -42 17 -49 0 -8 7 -16
15 -20 8 -3 15 -12 15 -20 0 -26 72 -36 111 -16 28 15 24 34 -16 69 -19 17
-35 34 -35 38 0 5 -9 14 -20 21 -14 8 -20 23 -20 46 0 30 -3 33 -21 29 -18 -5
-20 -3 -14 16 4 12 2 21 -4 21 -6 0 -11 10 -11 21 0 16 -5 20 -20 16 -16 -4
-20 0 -20 19 0 18 4 22 17 17 13 -5 15 -2 10 18 -4 13 -7 27 -7 30 0 4 -10 7
-22 7 -13 -1 -36 2 -53 5 -16 3 -48 2 -70 -3z"/>
<path d="M15907 8233 c-23 -41 -27 -85 -12 -145 37 -151 49 -184 79 -209 13
-11 19 -31 21 -69 3 -54 4 -55 44 -69 34 -13 50 -13 108 -2 37 8 86 22 109 33
22 10 50 20 63 23 45 8 61 17 61 31 0 8 -6 17 -13 20 -7 2 -14 19 -15 36 -2
18 -8 36 -15 40 -7 5 -48 6 -92 3 -123 -9 -143 -8 -177 9 -17 9 -40 16 -51 16
-20 0 -20 1 -3 13 17 13 17 14 1 30 -9 9 -14 21 -11 26 4 5 -1 16 -10 25 -8 9
-12 21 -8 27 3 6 0 15 -7 20 -11 7 -12 12 -1 29 10 17 10 20 -3 20 -8 0 -15 4
-15 10 0 16 -34 90 -42 90 -4 0 -9 -3 -11 -7z"/>
<path d="M15783 8149 c-6 -6 -51 -12 -100 -14 -48 -1 -94 -3 -100 -4 -23 -2
-14 -27 19 -55 26 -21 42 -26 84 -26 36 0 65 -7 91 -22 27 -16 34 -18 25 -6
-10 12 -11 33 -6 77 7 63 5 68 -13 50z"/>
<path d="M17817 8110 c-20 -16 -31 -19 -44 -12 -12 7 -24 5 -40 -5 -12 -8 -45
-16 -73 -16 -41 -2 -49 -5 -44 -19 2 -9 0 -19 -6 -23 -5 -3 -10 -1 -10 4 0 15
-18 14 -73 -7 l-47 -18 40 -30 c22 -16 52 -51 66 -79 39 -75 47 -81 87 -67 18
7 43 12 55 12 11 0 24 5 27 11 4 6 14 8 22 5 9 -4 22 -1 29 5 7 6 37 13 67 15
49 3 55 1 74 -24 11 -15 23 -37 27 -50 4 -13 15 -22 27 -22 10 0 19 -7 19 -15
0 -8 9 -15 20 -15 29 0 90 27 90 39 0 6 7 11 15 11 8 0 15 5 15 10 0 7 -13 9
-33 5 -43 -8 -68 16 -48 47 10 17 10 22 -5 33 -10 7 -24 10 -31 8 -9 -3 -18 7
-26 26 -7 19 -18 31 -29 31 -10 0 -18 5 -18 10 0 6 4 10 9 10 5 0 16 11 25 25
22 33 13 68 -15 60 -14 -5 -21 0 -29 19 -9 24 -13 25 -56 19 -31 -4 -48 -2
-53 6 -5 8 -15 6 -34 -9z"/>
<path d="M13433 8065 c0 -14 -8 -34 -17 -44 -20 -23 -21 -41 0 -41 10 0 14 -5
10 -16 -3 -8 -2 -12 3 -9 6 3 13 -1 18 -8 4 -8 15 -17 23 -20 12 -4 11 -6 -3
-6 -16 -1 -17 -3 -3 -22 8 -12 12 -27 10 -34 -3 -7 1 -15 8 -17 22 -9 110 8
119 23 13 20 11 29 -5 29 -8 0 -16 10 -18 22 -2 13 -15 29 -31 36 -23 11 -28
19 -23 38 5 17 3 22 -7 18 -19 -7 -59 31 -55 52 2 11 -4 20 -13 22 -12 2 -16
-4 -16 -23z"/>
<path d="M15434 8063 c-4 -15 -2 -34 5 -45 9 -15 9 -25 -2 -47 -11 -22 -11
-29 0 -39 15 -15 18 -36 3 -27 -18 11 -10 0 30 -45 36 -39 40 -49 35 -80 -3
-19 -1 -41 3 -48 5 -7 6 -34 2 -60 -6 -48 -6 -48 31 -66 44 -21 111 -18 209
11 82 24 110 39 111 61 0 9 3 12 5 6 3 -8 14 -8 39 0 37 11 46 32 19 43 -12 4
-14 14 -9 39 7 37 6 37 -67 36 -21 0 -38 4 -38 10 0 6 -10 7 -27 2 -16 -4 -39
-8 -53 -9 -47 -3 -105 -18 -112 -29 -12 -17 -28 14 -22 40 3 12 1 25 -5 28 -6
4 -11 15 -11 25 0 11 -9 21 -21 24 -12 3 -18 10 -14 16 9 16 -5 52 -17 45 -7
-5 -9 -1 -5 9 3 9 0 18 -9 21 -8 3 -14 12 -14 21 0 8 -6 15 -12 15 -8 0 -6 5
4 11 11 6 15 16 11 27 -15 40 -60 44 -69 5z"/>
<path d="M15143 7999 c-10 -10 -32 -16 -60 -18 -7 -1 -13 -5 -13 -9 0 -12 98
-42 174 -53 64 -9 71 -8 92 12 13 13 24 28 24 35 0 12 -28 29 -44 25 -5 -1
-22 3 -38 10 -21 9 -31 9 -42 0 -10 -8 -16 -9 -21 -1 -8 13 -58 13 -72 -1z"/>
<path d="M14988 7933 c0 -5 -2 -15 -2 -23 -1 -8 -7 -14 -13 -13 -6 1 -14 -4
-17 -13 -4 -10 -2 -13 6 -8 7 5 8 3 3 -7 -18 -28 -40 -49 -52 -49 -22 0 -4
-25 40 -52 41 -25 85 -33 167 -29 46 3 71 2 157 -5 62 -5 76 -3 98 14 23 19
24 20 6 36 -9 9 -22 16 -28 16 -6 0 -13 5 -15 10 -2 6 -21 13 -43 15 -46 5
-63 9 -88 20 -9 4 -28 4 -41 1 -14 -3 -28 -1 -31 4 -4 6 -10 8 -15 5 -17 -11
-89 17 -83 31 3 8 -1 14 -11 14 -9 0 -16 8 -16 20 0 19 -18 29 -22 13z"/>
<path d="M17298 7929 c-10 -5 -38 -11 -64 -13 -26 -2 -50 -9 -54 -16 -5 -8
-18 -10 -35 -6 -17 4 -33 2 -43 -6 -8 -7 -25 -13 -36 -13 -15 0 -20 -5 -18
-19 2 -10 -1 -15 -6 -12 -6 3 -13 0 -15 -6 -4 -11 -7 -10 -14 0 -12 16 -73 5
-73 -14 0 -7 10 -20 21 -28 20 -13 39 -39 80 -105 8 -14 26 -28 38 -29 15 -2
21 0 17 7 -7 10 16 16 54 13 8 0 35 9 60 20 25 11 55 25 66 30 12 6 36 7 53 3
17 -4 31 -2 31 3 0 5 14 9 31 9 25 0 30 -4 26 -19 -3 -10 -1 -21 4 -24 5 -3 9
-16 9 -28 0 -13 7 -29 15 -36 8 -7 12 -16 9 -21 -3 -5 11 -9 30 -9 42 0 100
44 77 59 -9 6 -11 16 -6 32 8 23 7 24 -13 6 -11 -10 -23 -14 -26 -9 -3 5 1 15
9 22 21 18 18 32 -5 25 -14 -5 -20 -2 -20 10 0 12 -6 14 -27 9 -21 -6 -25 -4
-20 9 3 8 3 18 -1 22 -3 3 -8 27 -9 53 -2 25 -8 49 -14 53 -6 3 -11 10 -11 15
1 5 -6 8 -14 6 -8 -2 -14 2 -14 9 0 9 -3 9 -14 0 -10 -8 -16 -9 -21 -1 -8 13
-35 13 -57 -1z"/>
<path d="M18694 7785 c-4 -9 -11 -12 -18 -8 -27 19 -186 -2 -228 -29 -16 -11
-47 -15 -105 -14 -84 1 -93 -2 -70 -26 19 -20 67 -96 67 -107 0 -23 35 -35 98
-34 36 1 73 -2 83 -7 33 -18 84 15 152 101 60 75 65 83 55 110 -11 32 -25 38
-34 14z"/>
<path d="M16700 7760 c-19 -5 -38 -6 -43 -3 -5 3 -12 2 -16 -3 -14 -20 -52
-33 -79 -28 -17 4 -32 1 -36 -5 -4 -6 -13 -11 -19 -11 -7 0 -6 4 3 10 9 6 10
10 3 10 -7 0 -21 -9 -32 -21 -13 -14 -26 -19 -40 -14 -15 5 -21 2 -21 -9 0 -9
-3 -16 -7 -16 -5 -1 -18 -9 -30 -19 l-23 -19 73 -70 c45 -45 75 -68 81 -62 6
6 20 10 32 10 13 0 26 5 29 10 3 6 16 10 28 10 13 0 33 7 45 16 12 8 26 12 32
9 5 -3 23 1 39 9 25 13 35 13 72 2 24 -7 43 -18 41 -25 -1 -6 4 -14 11 -17 8
-3 12 -14 10 -28 -3 -16 2 -27 19 -38 55 -36 108 -30 108 13 0 10 8 23 18 28
14 9 11 10 -16 11 -27 0 -31 3 -24 16 11 20 -7 64 -28 65 -10 0 -11 2 -2 6 18
7 14 20 -9 26 -11 3 -23 15 -26 26 -6 23 -9 24 -38 11 -19 -9 -19 -9 3 -16 12
-3 22 -14 21 -23 0 -9 -3 -11 -5 -5 -3 7 -14 10 -24 7 -11 -3 -20 -1 -20 3 0
5 -3 19 -6 32 -5 18 -2 22 15 22 18 0 20 4 15 28 -4 15 -11 30 -17 33 -5 4 -6
13 -2 20 6 11 5 12 -6 2 -16 -15 -65 -17 -74 -3 -7 11 -6 11 -55 0z"/>
<path d="M13430 7724 c-49 -18 -66 -21 -72 -11 -8 12 -9 10 -12 -15 -1 -7 -12
-12 -24 -11 -12 2 -22 -2 -22 -7 0 -6 -6 -10 -12 -10 -7 -1 -31 -9 -53 -20
-22 -11 -51 -19 -64 -20 -24 0 -50 -25 -51 -47 0 -7 5 -13 11 -13 14 0 69 -55
69 -69 0 -15 10 -13 45 10 37 23 56 31 120 52 44 14 51 14 66 1 12 -11 28 -13
60 -9 34 5 40 4 29 -4 -12 -9 -9 -10 13 -5 16 4 27 2 27 -4 0 -17 61 -11 80 8
31 31 31 50 3 88 -15 20 -29 39 -31 42 -2 2 -7 -2 -13 -10 -6 -10 -7 -4 -3 19
l7 33 -49 -3 c-42 -3 -49 -1 -48 14 2 21 4 21 -76 -9z"/>
<path d="M15058 7649 c-21 -22 -38 -44 -38 -50 0 -22 32 -69 47 -69 9 0 32
-12 51 -26 29 -23 45 -27 106 -28 58 -1 81 4 129 27 32 15 64 27 72 27 8 0 15
7 15 16 0 11 6 14 20 9 11 -4 20 -2 20 4 0 16 -31 13 -51 -5 -12 -10 -25 -13
-40 -9 -23 7 -23 8 -3 24 30 25 54 68 54 97 0 26 -1 26 -24 10 -14 -9 -32 -13
-40 -10 -9 3 -16 1 -16 -5 0 -18 -95 -13 -152 9 -77 29 -106 25 -150 -21z"/>
<path d="M18087 7665 c-8 -8 -40 -17 -71 -20 -49 -4 -56 -3 -57 12 0 12 -4 8
-11 -9 -7 -20 -17 -28 -33 -28 -13 0 -27 -4 -30 -10 -11 -18 -27 -10 -22 11 4
15 2 19 -10 15 -8 -3 -17 -6 -19 -6 -2 0 -4 -7 -4 -15 0 -8 -6 -15 -14 -15 -8
0 -16 -7 -20 -15 -6 -16 -36 -21 -36 -6 0 5 -8 7 -19 4 -10 -3 -22 0 -25 6 -5
8 -13 8 -27 1 -19 -11 -19 -11 3 -42 13 -17 37 -47 55 -65 17 -18 35 -42 38
-53 5 -16 15 -20 56 -20 28 0 59 5 70 11 25 13 158 36 182 31 9 -2 17 -8 17
-13 0 -5 9 -9 20 -9 11 0 20 -4 20 -9 0 -19 52 -65 72 -66 12 0 23 -5 25 -11
2 -7 -6 -10 -22 -7 -28 6 -33 -10 -11 -33 15 -14 62 -19 90 -8 12 5 13 10 3
27 -7 12 -17 25 -23 29 -7 4 -15 19 -18 33 -5 20 -1 31 16 45 22 19 19 23 -17
22 -5 0 -23 15 -39 34 -21 26 -29 47 -30 80 -2 38 -7 47 -30 59 -16 8 -32 12
-37 9 -5 -3 -9 4 -9 15 0 27 -15 34 -33 16z"/>
<path d="M14588 7605 c-16 -13 -28 -28 -28 -32 -1 -4 -14 -19 -30 -33 -17 -13
-30 -28 -30 -32 0 -15 -34 -48 -50 -48 -8 0 -28 7 -43 15 -15 8 -35 11 -44 8
-12 -5 -15 -2 -10 10 5 12 1 17 -12 17 -10 0 -21 8 -24 19 -6 26 -55 36 -77
16 -14 -13 -19 -13 -23 -3 -6 16 -36 1 -51 -27 -19 -34 -36 -47 -61 -49 -16
-1 -25 -7 -25 -18 0 -12 -5 -15 -16 -11 -11 4 -15 2 -13 -6 3 -7 8 -12 12 -12
15 2 63 -28 84 -53 13 -15 33 -26 47 -26 14 0 28 -5 31 -10 4 -6 10 -8 15 -5
4 3 10 -4 13 -15 4 -17 14 -20 64 -21 32 -1 72 -3 88 -5 17 -1 54 0 83 2 43 5
55 10 61 27 10 26 5 35 -11 19 -8 -8 -16 -7 -33 4 -28 18 -23 63 12 100 13 15
38 54 55 88 17 33 34 69 40 79 14 28 6 28 -24 2z"/>
<path d="M16137 7573 c-6 -6 -22 -9 -80 -17 -10 -1 -22 -8 -26 -15 -4 -6 -20
-13 -34 -15 -14 -1 -33 -8 -41 -15 -8 -7 -25 -12 -38 -11 -13 1 -25 1 -28 0
-3 -1 -17 -3 -32 -5 -15 -2 -41 -14 -57 -26 l-31 -23 29 -12 c17 -7 56 -40 89
-74 l59 -61 47 20 c25 11 47 20 49 19 6 -4 108 35 112 43 9 13 49 11 64 -3 6
-7 17 -13 23 -13 6 0 13 -6 16 -12 2 -7 -1 -13 -7 -13 -6 0 -11 -4 -11 -10 0
-5 6 -10 14 -10 13 0 26 -20 26 -40 0 -4 -9 -10 -20 -13 -11 -3 -20 -12 -20
-20 0 -12 12 -16 53 -16 68 1 106 16 113 45 3 13 11 24 17 24 6 0 1 7 -11 16
-16 11 -21 21 -16 40 4 14 2 24 -5 24 -6 0 -11 6 -11 14 0 7 -7 19 -15 26 -11
9 -14 23 -10 47 3 19 1 33 -5 33 -6 0 -10 -9 -10 -20 0 -11 -7 -23 -15 -27
-19 -7 -34 5 -19 15 14 9 29 53 17 51 -22 -6 -63 15 -63 31 0 27 -37 32 -55 7
l-15 -21 0 22 c0 16 -6 22 -23 22 -13 0 -27 -3 -30 -7z"/>
<path d="M17450 7502 c-8 -3 -21 -10 -29 -16 -8 -6 -25 -12 -38 -13 -60 -7
-69 -9 -80 -16 -7 -5 -18 -5 -23 -2 -6 3 -13 -1 -16 -9 -3 -9 -10 -13 -15 -10
-6 3 -16 0 -24 -6 -8 -6 -19 -9 -25 -5 -5 3 -10 1 -10 -5 0 -7 -8 -9 -21 -5
-22 7 -59 -18 -59 -42 0 -7 18 -29 40 -49 22 -20 40 -42 40 -48 0 -7 10 -22
23 -34 27 -26 85 -23 123 7 14 11 32 17 39 15 8 -3 36 6 62 19 26 14 64 28 84
31 39 7 49 -3 49 -49 0 -12 7 -28 15 -35 8 -7 15 -21 15 -31 0 -11 5 -19 11
-19 5 0 9 -8 7 -17 -3 -21 1 -23 42 -23 55 0 92 66 51 92 -15 9 -18 19 -14 40
5 24 2 28 -18 29 l-24 0 24 10 24 9 -27 25 c-14 13 -26 31 -26 39 0 8 -10 16
-22 18 -18 2 -23 9 -21 30 3 53 -87 93 -157 70z"/>
<path d="M15589 7391 c20 -13 -8 -21 -31 -9 -11 5 -18 5 -18 -1 0 -5 -8 -10
-17 -10 -10 0 -35 -4 -55 -9 -27 -7 -38 -7 -38 1 0 7 -4 7 -12 -1 -7 -7 -20
-12 -30 -12 -10 0 -18 -6 -18 -12 0 -8 -7 -5 -15 6 -13 17 -15 17 -15 4 0 -22
-20 -34 -30 -18 -6 10 -18 10 -59 0 -28 -6 -51 -15 -51 -19 0 -13 106 -118
141 -139 40 -24 82 -28 126 -11 31 12 119 15 144 5 9 -4 27 -6 40 -4 13 2 25
-1 26 -6 1 -5 7 -13 15 -17 10 -7 10 -9 1 -9 -7 0 -13 -7 -13 -16 0 -10 6 -14
14 -11 15 6 39 -16 49 -45 5 -16 9 -16 45 -1 58 22 79 82 29 83 -5 0 -5 5 -1
11 10 17 -17 29 -39 17 -13 -7 -22 -7 -30 1 -8 8 -8 11 1 11 7 0 12 9 12 21 0
11 4 18 10 14 5 -3 7 -12 3 -20 -7 -20 11 -19 28 1 11 14 10 18 -5 29 -10 8
-15 18 -11 24 3 7 -2 11 -14 11 -12 0 -21 5 -21 12 0 6 -7 20 -17 30 -15 17
-15 18 7 18 18 0 20 3 11 13 -6 8 -8 17 -4 20 3 4 -2 7 -11 7 -12 0 -16 -5
-12 -15 3 -8 1 -15 -5 -15 -5 0 -14 12 -19 26 -7 18 -15 24 -28 19 -11 -3 -32
1 -48 10 -31 16 -59 21 -35 6z"/>
<path d="M16926 7325 c-16 -9 -37 -13 -46 -10 -10 3 -30 0 -46 -6 -16 -7 -35
-11 -42 -10 -14 2 -104 -24 -138 -41 -11 -5 -40 -11 -64 -12 -35 -2 -45 -7
-53 -27 -8 -20 -11 -21 -14 -6 -3 9 -9 17 -14 17 -18 0 -9 -19 23 -47 18 -15
55 -52 83 -82 50 -52 53 -53 86 -43 19 5 43 10 54 10 59 3 178 31 196 48 17
15 24 16 39 6 11 -7 26 -12 34 -12 15 0 15 -16 0 -82 -4 -19 -2 -28 7 -28 7 0
21 -8 31 -17 14 -13 21 -14 30 -5 7 7 27 12 44 12 43 0 49 12 19 38 -14 12
-25 26 -25 31 0 4 -11 6 -25 3 -14 -2 -25 -8 -25 -13 0 -16 -19 -10 -29 10 -9
15 -7 17 12 14 30 -6 54 31 36 54 -7 8 -14 22 -15 30 -2 8 -10 23 -18 32 -9
10 -16 24 -16 32 0 8 -12 25 -25 38 -26 24 -33 43 -14 39 6 -2 14 3 17 11 3
10 0 12 -11 8 -9 -3 -21 1 -27 9 -16 18 -28 18 -64 -1z"/>
<path d="M14964 7248 c-5 -8 -21 -23 -37 -33 -21 -13 -30 -15 -41 -6 -10 9
-16 9 -21 1 -4 -6 -16 -8 -27 -4 -18 5 -20 3 -15 -15 6 -26 -1 -27 -20 -3 -12
13 -14 14 -10 1 4 -12 -1 -14 -24 -11 -21 3 -29 0 -29 -10 0 -8 -6 -15 -12
-16 -39 -5 -55 -9 -66 -16 -6 -4 -16 -4 -22 -1 -5 3 -10 -3 -10 -14 0 -22 25
-51 45 -51 7 0 25 -16 39 -35 57 -75 72 -86 97 -76 13 5 51 15 84 22 72 16
102 30 122 59 13 19 17 20 32 7 9 -8 26 -18 39 -21 12 -4 22 -14 22 -22 0 -8
9 -23 19 -33 11 -11 17 -21 15 -24 -3 -2 -7 -17 -10 -32 -4 -22 -2 -26 11 -22
9 4 15 1 15 -8 0 -21 43 -19 68 3 24 19 40 72 23 72 -6 0 -21 10 -32 21 -17
17 -19 23 -8 30 9 6 15 3 17 -6 2 -8 8 -15 13 -15 14 0 11 16 -6 30 -8 7 -15
21 -15 31 0 13 -6 18 -22 16 -15 -1 -22 3 -20 11 3 16 -21 42 -40 42 -9 1 -8
4 4 13 23 18 28 52 6 51 -10 -1 -19 8 -23 23 -5 23 -9 24 -45 18 -31 -5 -39
-4 -35 7 3 8 -3 13 -20 14 -14 1 -25 -3 -25 -9 0 -6 -6 -2 -14 8 -11 16 -14
16 -22 3z"/>
<path d="M18220 7168 c-5 -13 -9 -18 -9 -12 -2 21 -26 22 -64 4 -20 -10 -37
-14 -37 -9 0 15 -44 10 -68 -7 -12 -8 -27 -12 -33 -8 -6 3 -24 -3 -40 -15 -15
-11 -37 -21 -48 -21 -29 0 -34 -15 -17 -49 27 -51 67 -91 91 -91 13 0 30 -6
38 -14 9 -10 36 -14 83 -14 58 0 74 4 102 25 44 33 78 70 110 118 15 22 33 45
40 51 22 17 -12 37 -65 39 -26 0 -48 6 -51 13 -6 19 -22 14 -32 -10z"/>
<path d="M16296 7136 c3 -7 -2 -16 -10 -19 -9 -4 -16 -3 -16 2 0 13 -41 6 -51
-10 -7 -11 -11 -11 -17 -1 -9 13 -42 6 -42 -9 0 -5 -9 -9 -20 -9 -11 0 -20 -4
-20 -10 0 -5 -9 -10 -19 -10 -11 0 -23 5 -26 10 -12 19 -38 11 -32 -10 4 -17
-1 -21 -34 -26 -71 -12 -70 -27 7 -104 64 -65 90 -80 107 -63 4 3 35 7 70 9
34 1 81 7 105 13 49 13 88 6 101 -17 8 -14 12 -14 25 -3 14 12 16 11 16 -7 0
-11 11 -27 25 -36 16 -10 25 -26 25 -41 0 -19 5 -25 23 -25 38 0 67 12 67 26
0 8 6 17 14 20 21 8 7 36 -14 29 -9 -3 -23 1 -30 10 -10 12 -10 15 1 15 17 0
44 39 29 41 -20 3 -25 4 -38 12 -7 5 -10 12 -7 17 3 5 -2 13 -11 18 -11 6 -17
21 -16 41 0 24 -4 32 -22 37 -14 3 -26 17 -32 37 -6 22 -15 32 -29 32 -11 0
-26 6 -33 13 -16 14 -62 16 -62 2 0 -5 -4 -10 -10 -10 -5 0 -7 6 -4 14 3 7 -2
16 -10 19 -10 4 -13 1 -10 -7z"/>
<path d="M14384 7036 c-3 -8 0 -24 6 -36 17 -31 6 -62 -30 -83 -33 -20 -54
-48 -65 -87 -5 -19 -4 -21 4 -10 6 8 11 12 11 8 0 -9 112 32 120 44 3 4 17 9
30 10 17 2 25 -3 28 -17 3 -11 15 -30 28 -42 13 -12 24 -29 24 -37 0 -8 5 -18
11 -22 6 -3 9 -14 6 -24 -6 -23 28 -41 71 -38 36 3 37 5 17 32 -8 11 -13 27
-10 37 3 9 -1 22 -10 29 -19 16 -20 34 0 26 17 -6 19 2 7 22 -5 7 -16 10 -25
6 -14 -5 -16 -1 -11 25 4 20 3 31 -5 31 -6 0 -11 -9 -11 -21 0 -18 -4 -20 -25
-15 -17 4 -25 2 -25 -6 0 -8 -5 -5 -11 5 -13 22 -4 37 22 37 12 0 23 10 29 26
12 32 12 37 1 29 -5 -3 -13 0 -17 6 -5 9 -11 7 -21 -6 -12 -17 -13 -17 -13 -1
0 28 -28 73 -49 79 -11 2 -29 -2 -40 -10 -19 -12 -21 -12 -21 1 0 20 -19 21
-26 2z"/>
<path d="M17600 7021 c-21 -17 -27 -18 -51 -6 -29 16 -41 11 -32 -13 4 -9 2
-13 -4 -9 -5 3 -38 -3 -74 -15 -83 -26 -121 -31 -130 -16 -10 15 -14 10 -23
-24 -6 -25 2 -36 59 -95 36 -38 65 -71 65 -74 0 -13 85 -8 129 7 24 8 62 14
85 14 22 -1 58 1 78 2 32 3 42 -2 71 -32 18 -19 39 -54 47 -78 9 -30 18 -41
28 -37 7 3 30 5 50 5 20 0 44 5 52 10 13 9 12 13 -6 28 -11 10 -19 23 -16 31
3 10 -2 11 -19 6 -21 -7 -22 -6 -10 9 12 14 12 19 -1 34 -9 9 -19 27 -23 40
-4 13 -12 21 -19 19 -6 -3 -17 6 -23 19 -6 13 -7 24 -2 24 5 0 9 5 9 11 0 8
-14 10 -42 6 -24 -3 -36 -3 -28 0 46 17 53 77 13 117 -21 21 -34 26 -55 22
-15 -3 -30 -1 -33 4 -10 17 -69 11 -95 -9z"/>
<path d="M15733 6939 c-4 -4 -24 -9 -43 -11 -19 -2 -36 -9 -36 -15 -1 -7 -2
-15 -3 -17 0 -2 -20 0 -43 5 -44 8 -108 -4 -108 -21 0 -5 -7 -7 -15 -3 -9 3
-25 -3 -35 -12 -17 -15 -24 -16 -47 -6 -64 29 -51 -43 13 -75 21 -11 52 -39
70 -64 28 -41 35 -45 70 -44 60 2 124 23 151 50 26 26 49 31 55 12 3 -7 13 -5
32 7 32 21 49 11 49 -30 0 -14 7 -30 17 -35 12 -6 16 -17 13 -30 -6 -23 31
-70 55 -70 20 0 82 39 82 52 0 5 -10 18 -22 29 -13 10 -17 18 -10 19 17 0 15
40 -2 40 -18 0 -18 50 1 72 8 9 10 18 5 22 -5 3 -15 -1 -22 -9 -16 -19 -30
-10 -30 21 0 13 -3 23 -7 23 -31 -5 -39 2 -35 31 3 23 0 31 -14 36 -11 3 -30
11 -44 16 -31 14 -86 18 -97 7z"/>
<path d="M17063 6853 c-15 -7 -38 -12 -49 -13 -12 0 -35 -7 -50 -15 -16 -8
-36 -12 -46 -9 -9 2 -19 0 -23 -5 -3 -6 -28 -13 -55 -17 -36 -5 -51 -12 -55
-25 -4 -11 -12 -19 -20 -19 -7 0 -26 -6 -43 -13 l-30 -12 35 -40 c20 -22 50
-57 68 -79 l32 -38 71 16 c39 9 84 16 99 16 16 0 38 7 50 15 12 8 28 12 36 9
8 -3 18 -1 22 5 11 19 66 -32 93 -86 28 -59 45 -65 110 -37 32 13 35 16 19 25
-12 7 -16 17 -12 30 4 13 2 19 -9 19 -10 0 -16 9 -16 25 0 18 -7 26 -24 31
-29 7 -41 31 -26 50 8 9 7 20 -7 40 -10 15 -16 38 -15 51 2 13 -1 23 -7 23 -6
0 -11 9 -11 19 0 14 -5 18 -20 14 -15 -4 -20 0 -20 16 0 18 -5 21 -34 18 -19
-1 -47 -7 -63 -14z"/>
<path d="M13780 6835 c-50 -27 -64 -30 -54 -14 4 7 -1 10 -11 7 -23 -4 -32
-28 -10 -28 24 0 65 -46 65 -74 0 -17 -11 -33 -32 -49 -53 -40 -73 -42 -113
-11 -22 16 -57 30 -87 35 -43 7 -57 5 -89 -13 -20 -11 -46 -37 -58 -58 l-21
-37 53 -6 c29 -4 53 -3 55 3 2 5 30 12 63 16 32 4 59 10 59 13 0 4 17 8 38 8
21 0 58 11 82 23 33 17 55 21 92 18 26 -3 50 -3 52 -1 2 3 -3 21 -11 41 -11
26 -13 53 -9 94 8 67 5 68 -64 33z"/>
<path d="M15124 6736 c-14 -17 -15 -18 -10 -2 5 16 3 17 -21 11 -16 -3 -36
-14 -47 -23 -12 -11 -35 -17 -67 -17 -30 0 -51 -5 -54 -12 -2 -7 -15 -13 -28
-13 -13 0 -28 -5 -35 -12 -8 -8 -15 -8 -28 3 -13 11 -18 11 -21 2 -3 -7 -11
-13 -19 -13 -16 0 -19 -16 -4 -25 15 -9 12 -25 -5 -25 -8 0 -15 -4 -15 -10 0
-5 11 -10 23 -10 13 0 32 -9 42 -20 10 -12 24 -19 30 -17 6 3 28 -5 50 -17 39
-22 40 -22 87 -4 27 10 59 18 72 18 14 0 26 5 28 12 3 7 15 13 29 14 13 1 32
5 41 8 9 4 36 4 60 -1 l43 -9 -3 -42 c-2 -32 1 -42 13 -42 8 0 15 -8 16 -17 1
-10 2 -27 3 -38 2 -32 53 -35 97 -7 l36 24 -25 26 c-13 15 -35 44 -49 65 -20
32 -27 36 -39 27 -10 -9 -14 -9 -14 -1 0 6 7 14 15 17 19 8 20 34 0 34 -23 0
-38 36 -25 60 9 17 6 24 -16 45 -29 27 -28 27 -97 30 -38 2 -50 -1 -63 -19z"/>
<path d="M16514 6662 c-7 -10 -30 -16 -74 -19 -36 -2 -66 -8 -68 -13 -2 -6
-14 -7 -26 -4 -14 3 -27 -1 -35 -10 -7 -9 -17 -13 -22 -10 -5 3 -34 2 -64 -1
-39 -5 -55 -12 -55 -22 0 -12 -3 -13 -14 -4 -10 8 -16 8 -23 -1 -19 -26 -5
-58 53 -123 57 -66 59 -67 99 -61 88 13 111 18 132 28 12 6 28 8 36 5 19 -7
87 16 97 34 6 9 12 5 22 -17 7 -16 25 -45 41 -65 16 -21 25 -42 22 -51 -10
-26 10 -29 53 -8 55 27 72 57 44 79 -11 9 -23 26 -27 39 -4 13 -14 22 -26 22
-11 0 -19 7 -19 16 0 8 -4 12 -10 9 -5 -3 -10 0 -10 9 0 8 4 16 9 18 5 2 13
15 16 31 6 21 4 27 -9 27 -9 0 -16 5 -16 10 0 6 -7 10 -15 10 -8 0 -12 6 -9
14 3 8 1 17 -5 21 -6 3 -11 15 -11 25 0 12 -5 17 -13 14 -8 -3 -25 -1 -38 5
-20 7 -28 5 -35 -7z"/>
<path d="M14541 6523 c-12 -8 -30 -11 -46 -7 -15 4 -25 2 -25 -5 0 -6 -9 -11
-20 -11 -23 0 -24 -3 -11 -28 6 -9 21 -43 35 -74 19 -44 30 -58 45 -58 15 0
21 6 21 21 0 11 4 18 9 14 5 -3 12 -1 15 4 8 13 84 12 93 -2 4 -6 6 -26 4 -43
-2 -24 4 -35 24 -48 39 -25 46 -11 20 41 -20 42 -21 49 -8 59 14 9 13 14 -1
42 -9 17 -16 38 -16 47 0 45 -96 79 -139 48z"/>
<path d="M17886 6523 c-5 -11 -10 -13 -17 -6 -8 8 -21 8 -43 1 -17 -5 -51 -12
-76 -15 -25 -2 -53 -9 -62 -14 -9 -5 -21 -8 -25 -7 -4 1 -25 -6 -47 -15 -43
-19 -63 -21 -68 -8 -1 5 -17 12 -35 15 -26 6 -34 4 -43 -14 -10 -19 -7 -26 25
-57 20 -19 50 -59 66 -89 17 -30 34 -56 39 -59 4 -2 29 2 56 9 27 8 58 14 69
13 68 -3 81 4 157 76 87 83 130 140 122 162 -7 17 -24 20 -24 5 0 -12 -49 -3
-64 11 -15 13 -23 11 -30 -8z"/>
<path d="M15925 6470 c-11 -4 -40 -14 -65 -21 -25 -7 -51 -17 -58 -22 -8 -7
-17 -6 -24 1 -6 6 -19 7 -32 3 -60 -23 -97 -32 -107 -25 -7 4 -17 0 -23 -8
-17 -22 -53 -39 -70 -32 -9 4 -23 1 -32 -7 -13 -11 -8 -18 37 -58 29 -25 66
-51 83 -58 39 -15 133 -16 141 -3 4 6 15 8 25 5 11 -3 27 -2 37 3 10 6 57 13
106 17 83 6 87 5 87 -15 0 -11 7 -20 15 -20 13 0 14 -4 5 -21 -9 -16 -8 -24 4
-38 9 -10 16 -28 17 -42 0 -13 3 -18 6 -11 3 8 16 11 38 6 19 -3 35 -1 39 5 9
15 -21 58 -44 64 -26 7 -26 27 0 34 14 4 17 9 12 17 -5 6 -12 27 -16 47 -4 24
-13 39 -25 42 -12 3 -20 17 -24 44 -4 22 -14 46 -22 53 -8 7 -15 18 -15 25 0
7 -9 10 -24 8 -13 -3 -27 0 -30 6 -8 13 -13 13 -41 1z"/>
<path d="M17265 6377 c-11 -7 -47 -14 -80 -15 -32 -2 -69 -9 -82 -17 -12 -8
-34 -15 -49 -15 -15 0 -35 -6 -43 -14 -9 -8 -33 -17 -55 -20 -21 -4 -42 -9
-47 -12 -16 -9 -10 -40 16 -75 13 -19 34 -51 45 -72 12 -21 27 -40 35 -43 12
-5 88 16 189 52 26 9 44 10 57 4 10 -6 26 -10 36 -10 10 0 30 -6 45 -14 15 -8
36 -12 46 -9 16 4 19 0 15 -21 -4 -19 -1 -26 11 -26 18 0 22 -15 6 -25 -5 -3
-10 -14 -10 -25 0 -13 5 -17 20 -13 11 3 20 0 20 -6 0 -6 -7 -11 -16 -11 -8 0
-12 -4 -9 -10 8 -14 68 -13 100 2 30 14 32 33 5 48 -11 6 -20 18 -20 28 -1 25
-32 58 -63 66 -31 7 -32 28 -3 32 26 4 45 25 29 31 -7 3 -13 11 -13 19 0 8 -4
14 -10 14 -5 0 -10 5 -10 11 0 7 -7 17 -16 24 -9 6 -17 24 -18 41 -3 31 -24
79 -33 71 -2 -3 -20 1 -38 9 -41 17 -36 17 -60 1z"/>
<path d="M13347 6324 c-4 -4 -7 -18 -7 -31 0 -18 5 -23 18 -20 18 4 72 -19 72
-31 0 -4 -7 -16 -16 -27 -12 -16 -27 -20 -81 -20 l-66 0 -2 -65 c-1 -39 -9
-81 -20 -105 -28 -59 -28 -62 -7 -37 24 27 28 27 34 4 4 -15 13 -17 42 -14 32
4 37 2 34 -13 -2 -10 3 -20 10 -22 7 -3 10 1 6 10 -9 24 24 28 46 5 11 -12 20
-25 20 -30 0 -4 7 -8 15 -8 7 0 18 -6 22 -13 10 -16 79 -49 95 -45 7 1 25 -10
40 -25 19 -19 37 -27 61 -27 21 0 41 -7 52 -20 18 -20 52 -29 40 -11 -3 5 0
13 6 17 7 4 9 3 5 -4 -7 -12 57 -44 128 -63 49 -14 150 -60 154 -71 2 -4 21
-8 43 -8 26 0 47 -7 61 -20 24 -22 58 -27 59 -7 0 6 5 1 11 -13 9 -21 12 -22
15 -7 7 27 31 20 48 -13 9 -17 20 -28 25 -25 4 3 11 -1 13 -7 4 -10 8 -9 17 2
10 13 11 13 7 -1 -3 -8 3 -21 14 -27 15 -9 20 -8 28 6 6 9 11 12 11 5 0 -7 16
-15 36 -19 20 -4 45 -15 55 -25 11 -11 31 -19 45 -19 14 0 23 -4 19 -10 -3 -5
3 -10 14 -10 11 0 23 -5 26 -10 4 -6 15 -8 26 -5 11 4 19 2 19 -4 0 -6 18 -11
40 -11 22 0 40 -3 40 -8 0 -14 106 -62 142 -65 15 -1 30 -8 33 -14 2 -7 13
-13 23 -13 20 0 46 -23 37 -32 -3 -2 1 -5 7 -6 59 -8 89 -16 94 -23 3 -5 17
-9 31 -9 25 0 72 -22 105 -49 10 -7 24 -11 33 -8 8 4 15 2 15 -4 0 -6 9 -8 20
-4 11 4 20 2 20 -4 0 -6 6 -8 14 -5 8 3 19 -4 26 -16 7 -12 18 -19 26 -16 8 3
14 1 14 -5 0 -6 9 -8 19 -4 13 4 28 -3 46 -19 27 -25 77 -42 94 -32 5 4 12 2
16 -4 3 -5 15 -10 26 -10 11 0 22 -7 25 -15 4 -9 19 -15 41 -15 19 0 51 -9 71
-20 20 -10 49 -22 63 -24 14 -3 36 -15 49 -26 13 -11 35 -21 49 -21 41 -3 55
-5 71 -11 63 -24 109 -38 128 -38 12 0 22 -4 22 -9 0 -13 85 -42 148 -49 6 -1
12 -9 12 -17 0 -11 11 -15 39 -15 22 0 43 -4 46 -10 3 -5 14 -10 25 -10 10 0
20 -6 23 -13 2 -7 28 -19 57 -26 38 -10 49 -16 39 -23 -10 -7 -4 -8 18 -6 19
3 31 0 30 -6 -1 -6 5 -10 13 -9 9 2 34 -6 55 -17 22 -11 48 -20 58 -20 11 0
41 -11 69 -25 27 -14 59 -25 70 -25 13 0 18 -5 15 -14 -4 -9 0 -12 12 -9 22 6
79 -16 64 -25 -6 -4 9 -7 34 -7 33 0 49 -5 62 -21 42 -52 178 -56 273 -8 65
33 166 106 186 135 14 20 17 32 21 74 1 6 5 4 10 -4 7 -11 10 -11 17 0 4 7 3
14 -3 16 -6 2 -9 12 -6 22 3 10 0 22 -6 25 -5 4 -8 13 -4 22 3 9 0 14 -8 12
-8 -2 -15 7 -17 20 -4 25 -32 31 -32 6 0 -12 -6 -15 -21 -11 -12 3 -30 0 -40
-6 -14 -9 -24 -9 -37 -1 -12 8 -24 8 -40 1 -18 -8 -27 -6 -46 12 l-24 23 -7
-21 c-8 -27 -21 -27 -35 0 -10 18 -8 21 11 26 22 6 22 7 3 14 -16 7 -17 8 -1
8 24 1 22 31 -3 31 -11 0 -20 6 -20 14 0 35 -47 28 -52 -7 -5 -31 -25 -32 -42
0 l-16 28 6 -29 c6 -26 5 -27 -13 -17 -16 8 -24 7 -38 -9 -9 -10 -23 -16 -31
-13 -8 3 -14 0 -14 -6 0 -6 -7 -11 -15 -11 -8 0 -15 3 -15 6 0 13 51 54 66 54
9 0 14 6 11 13 -2 6 -17 11 -33 10 l-29 -3 32 13 c41 16 50 25 29 33 -10 4
-24 -1 -35 -10 -10 -9 -25 -16 -34 -16 -20 0 -23 -26 -4 -33 10 -4 10 -7 0
-18 -11 -11 -13 -10 -13 4 0 11 -7 16 -22 14 -20 -2 -23 2 -20 28 2 24 -3 32
-24 42 -17 8 -33 9 -47 3 -27 -11 -67 -45 -67 -57 0 -9 -51 -35 -58 -29 -2 3
15 23 37 45 42 42 45 49 35 75 -6 17 -34 10 -34 -8 0 -7 -15 -12 -35 -12 -19
0 -35 4 -35 8 0 4 5 8 11 8 14 0 49 43 42 52 -8 15 -55 8 -80 -11 -28 -23 -66
-15 -72 15 -2 10 -15 29 -30 41 -23 20 -27 21 -37 8 -7 -9 -18 -13 -28 -9 -9
3 -16 1 -16 -5 0 -6 -7 -11 -15 -11 -8 0 -15 5 -15 10 0 6 7 10 15 10 8 0 15
5 15 10 0 6 9 10 19 10 16 0 31 18 31 36 0 9 -37 3 -48 -8 -9 -9 -12 -8 -12 5
0 16 -3 16 -28 -3 -25 -19 -31 -19 -59 -8 -26 11 -30 17 -22 31 6 10 14 15 20
12 5 -4 9 -2 9 3 0 5 -21 13 -46 17 -37 5 -43 9 -34 20 7 8 8 20 4 26 -5 9
-11 7 -21 -6 -13 -18 -13 -18 -27 0 -9 13 -18 16 -32 10 -10 -4 -22 -7 -26 -7
-5 1 -8 -2 -8 -8 0 -5 -7 -7 -15 -4 -8 4 -15 12 -15 20 0 11 -9 13 -41 8 -33
-6 -41 -4 -37 7 2 8 14 18 26 24 28 13 56 85 32 85 -5 0 -10 -8 -10 -18 0 -25
-19 -42 -47 -42 -14 0 -23 6 -23 16 0 11 -5 14 -16 10 -9 -3 -22 -6 -30 -6 -8
0 -29 -15 -47 -34 -18 -18 -42 -36 -54 -39 -20 -4 -21 -3 -11 16 6 11 19 30
30 41 14 16 18 30 14 55 -7 45 -12 48 -45 28 -30 -17 -58 -24 -32 -8 10 6 2 8
-22 6 -20 -2 -39 1 -43 6 -10 16 -35 -12 -29 -32 11 -34 -16 -30 -30 5 -9 20
-22 36 -30 36 -8 0 -15 5 -15 10 0 6 -7 10 -15 10 -17 0 -20 -21 -4 -37 6 -6
7 -13 2 -16 -5 -3 -27 10 -49 30 -21 20 -31 33 -21 30 13 -5 17 -1 17 14 0 15
-5 19 -16 15 -8 -3 -12 -2 -9 4 12 20 -17 9 -35 -12 -13 -16 -15 -27 -8 -35
10 -12 3 -33 -11 -33 -5 0 -14 14 -21 30 -21 50 -71 69 -62 24 4 -21 1 -25
-14 -22 -10 2 -24 14 -30 26 -6 13 -15 23 -20 23 -14 1 -19 9 -6 9 7 0 12 9
12 20 0 15 -6 20 -27 19 -16 0 -22 -3 -15 -6 18 -7 15 -23 -6 -23 -10 0 -23
-5 -28 -10 -14 -14 -66 63 -58 85 3 8 2 15 -2 15 -5 1 -32 3 -60 5 -27 2 -56
0 -64 -5 -8 -5 -22 -4 -33 1 -14 8 -23 6 -38 -7 -17 -15 -19 -15 -25 0 -9 23
4 49 20 43 8 -3 17 0 19 7 8 21 -10 40 -40 42 -15 1 -31 3 -35 3 -13 2 -9 28
7 41 18 15 20 43 3 38 -7 -3 -13 -11 -13 -19 0 -22 -34 -44 -48 -30 -19 19
-37 12 -37 -14 0 -32 -26 -33 -51 -1 -24 30 -62 42 -54 17 4 -14 -1 -18 -25
-18 -31 0 -40 11 -17 20 8 4 7 6 -3 6 -9 1 -21 -4 -26 -9 -16 -16 -46 0 -41
21 3 11 1 19 -4 19 -5 0 -11 11 -15 25 -3 14 -10 25 -15 25 -5 0 -9 8 -9 19 0
15 -9 18 -60 20 -60 2 -71 -4 -48 -27 9 -9 7 -13 -6 -18 -10 -4 -21 -2 -25 4
-3 6 -15 10 -26 9 -13 -1 -20 4 -20 16 0 10 -6 22 -13 26 -8 5 -13 11 -13 15
3 24 -1 36 -10 31 -6 -4 -8 -13 -5 -21 3 -8 0 -14 -8 -14 -21 0 -26 11 -13 31
9 14 7 22 -7 38 -20 22 -39 19 -76 -14 -31 -28 -105 -61 -156 -69 -68 -11
-246 -15 -271 -5 -13 5 -46 30 -73 55 -47 44 -50 49 -50 98 0 29 -5 57 -12 64
-9 9 -9 12 -1 12 7 0 14 9 18 20 3 11 22 42 41 69 33 50 45 76 23 54 -6 -6
-17 -9 -24 -7 -7 3 -25 -11 -40 -30 -26 -34 -55 -48 -55 -26 0 7 -6 7 -19 0
-27 -14 -31 -13 -31 10 0 23 -15 27 -24 5 -3 -8 -16 -15 -29 -15 -19 0 -26 7
-30 30 -7 32 -24 40 -33 15 -4 -8 -13 -15 -21 -15 -9 0 -13 6 -9 15 3 9 0 15
-9 15 -8 0 -15 -9 -15 -20 0 -11 -6 -20 -13 -20 -7 0 -18 9 -25 20 -7 12 -8
20 -2 20 6 0 5 8 -2 21 -9 14 -21 19 -40 16 -15 -2 -29 1 -30 5 -2 5 -7 6 -11
2z"/>
<path d="M15230 6233 c-13 -9 -32 -18 -42 -18 -10 -1 -29 -12 -43 -25 -22 -21
-29 -20 -27 1 2 12 -37 -3 -42 -16 -2 -7 -25 -16 -50 -19 -33 -5 -52 -15 -71
-37 -31 -37 -32 -62 -3 -89 22 -20 36 -21 115 -4 12 2 24 0 27 -4 7 -12 69
-13 76 -2 3 5 31 11 63 13 31 3 67 11 79 19 13 8 36 15 51 16 22 1 32 -5 50
-36 12 -20 21 -42 19 -48 -3 -12 54 -27 69 -18 14 9 10 34 -5 34 -21 0 -31 21
-16 30 7 4 10 15 6 25 -5 15 -7 15 -22 0 -15 -15 -17 -14 -28 7 -8 15 -9 34
-4 56 11 40 -8 99 -36 114 -14 8 -21 8 -24 0 -3 -10 -38 -5 -57 8 -19 13 -62
9 -85 -7z"/>
<path d="M16595 6185 c-16 -13 -42 -24 -57 -25 -15 0 -32 -8 -37 -17 -6 -10
-11 -14 -11 -9 0 4 -11 1 -24 -7 -16 -11 -27 -12 -33 -6 -14 14 -58 7 -58 -8
0 -6 -12 -23 -27 -37 -16 -14 -28 -28 -28 -32 0 -9 68 -84 95 -105 18 -15 26
-15 100 0 47 10 98 28 122 44 48 30 63 34 63 13 0 -7 12 -22 26 -32 79 -57 76
-54 69 -101 -7 -51 7 -62 58 -43 43 18 44 19 52 63 7 35 6 37 -19 37 -25 0
-26 3 -26 50 0 28 -4 50 -8 50 -12 0 -31 60 -25 77 5 12 2 15 -8 11 -10 -4
-15 3 -16 23 -3 42 -49 81 -88 74 -44 -8 -58 -9 -75 -1 -9 3 -27 -4 -45 -19z"/>
<path d="M16070 5963 c-14 -3 -33 -12 -43 -21 -15 -13 -21 -14 -39 -3 -17 11
-23 10 -42 -8 -17 -16 -30 -20 -53 -15 -23 4 -32 2 -37 -11 -4 -11 -12 -15
-22 -11 -10 4 -31 -5 -53 -21 -20 -16 -41 -28 -46 -28 -6 0 -25 -11 -43 -23
-17 -13 -36 -21 -41 -17 -13 7 -61 -5 -61 -16 0 -5 6 -6 13 -3 8 3 31 -11 53
-31 38 -35 41 -36 94 -29 30 3 84 7 120 9 41 1 83 10 114 23 32 15 69 22 107
22 52 0 59 -2 59 -19 0 -21 17 -37 28 -26 3 3 0 10 -8 15 -8 5 -11 12 -7 16 3
4 13 1 21 -5 8 -7 20 -10 26 -6 13 8 13 68 0 81 -5 5 -12 30 -15 54 -9 70 -40
88 -125 73z"/>
<path d="M17420 5833 c-19 -3 -39 -8 -45 -13 -5 -4 -44 -8 -85 -7 -57 1 -82
-4 -103 -17 -19 -13 -48 -19 -92 -20 -35 -1 -66 -4 -69 -7 -4 -4 5 -14 19 -23
14 -9 42 -41 61 -71 19 -30 42 -59 52 -64 26 -14 197 -8 216 8 8 7 19 10 25 7
10 -7 149 124 173 164 18 29 13 57 -7 40 -9 -7 -21 -7 -39 0 -27 10 -41 10
-106 3z"/>
<path d="M16865 5691 c-27 -4 -39 -11 -37 -20 4 -21 -18 -31 -45 -20 -27 10
-96 -20 -149 -64 -16 -13 -41 -27 -57 -31 -27 -6 -137 -72 -137 -82 0 -24 34
-62 60 -68 37 -7 150 8 212 28 24 8 63 17 88 20 118 18 109 19 121 -11 6 -16
15 -35 20 -43 5 -8 12 -22 16 -30 9 -21 52 -60 65 -60 6 0 8 -9 5 -22 -7 -24
16 -47 47 -48 18 0 18 1 2 19 -11 12 -14 21 -7 26 6 3 11 30 11 60 0 44 -3 55
-20 60 -21 7 -50 57 -50 89 0 36 -12 66 -26 66 -19 0 -28 20 -15 33 8 8 7 15
-3 26 -8 9 -15 21 -16 26 -6 30 -21 55 -32 54 -7 -1 -31 -5 -53 -8z"/>
</g>
</svg>
